<svg xmlns="http://www.w3.org/2000/svg" viewBox="0 0 812.76 812.7"><defs><style>.cls-1{fill:#f7931e;}</style></defs><title>Header_Circle_Orange</title><g id="レイヤー_2" data-name="レイヤー 2"><g id="レイヤー_1-2" data-name="レイヤー 1"><path class="cls-1" d="M88.25,189.16l62.06,64.11q6.28-10.5,13.48-20.58l-58.29-60.22L87.76,154.15q-7.57,9.54-14.54,19.49Z"/><path class="cls-1" d="M157.23,122.39l55.36,57.19q9.24-7.9,18.95-14.93L174.47,105.7,155.83,86.44q-9.44,7.41-18.48,15.42Z"/><path class="cls-1" d="M678,280.78l-1.42-1.47a297.16,297.16,0,0,1,19.39,54.54L743.5,383l66.95,69.16q1.78-16,2.31-32.12l-52-53.73Z"/><path class="cls-1" d="M53.76,222.55,128,299.21q4.63-12.09,10.34-23.82L71,205.85,59.72,194.19q-6.53,10.65-12.37,21.72Z"/><path class="cls-1" d="M628.4,747.16q10.17-6.64,20-13.9l-46.25-47.78-29.78-30.76q-10.29,6.88-21,12.8l33.54,34.65Z"/><path class="cls-1" d="M108.32,416.94a301.17,301.17,0,0,1,.74-33.74L84.79,358.13,17.4,288.51q-4.07,13.42-7.19,27.08l57.34,59.23Z"/><path class="cls-1" d="M32.3,247.45Q29,255.16,26.09,263l76,78.46L113,352.74q2.55-14,6.45-27.85l-.15-.16-82.77-85.5-.42-.43Q34.15,243.1,32.3,247.45Z"/><path class="cls-1" d="M806,482l-79.72-82.35L703.3,376A301,301,0,0,1,704.79,412l4.22,4.36,82.77,85.5,7.9,8.16Q803.32,496.14,806,482Z"/><path class="cls-1" d="M564.18,59.7l82.77,85.5,82.77,85.5,70,72.28a407.36,407.36,0,0,0-14-43.28q-1.9-4.91-3.92-9.75L747,214l-82.77-85.5L581.42,43l-6.27-6.47q-4.78-2.17-9.62-4.24a407.34,407.34,0,0,0-42.81-15.42Z"/><path class="cls-1" d="M115.83,493.71l7.81,8.07a298.65,298.65,0,0,1-11.5-46.38L50.31,391.51,4.72,344.41q-2.35,15.32-3.54,30.85L33.06,408.2Z"/><path class="cls-1" d="M533.12,752.25l-54.4-56.2q-13.91,3.44-28,5.54l65.2,67.35,21.7,22.42q7.9-2.69,15.71-5.7,4.41-1.71,8.77-3.52Z"/><path class="cls-1" d="M122.74,155.78l56,57.81q7.72-9.1,16.28-17.69l-55-56.81L119.86,118.3q-8.55,8.5-16.55,17.41Z"/><path class="cls-1" d="M360.7,91,289.21,17.19Q276.52,21,264,25.68l79.43,82.06,5.72,5.91q14.58-2.83,29.34-4.2Z"/><path class="cls-1" d="M191.71,89l60.15,62.13q10.7-6.48,21.81-12L209,72.31,195.81,58.73q-10.45,6.34-20.49,13.34Z"/><path class="cls-1" d="M774.54,518.56l-72.07-74.45q-1.85,14.69-5.15,29.19l60,62,25.18,26q5.07-12.33,9.3-24.9Z"/><path class="cls-1" d="M705.56,585.33l-36.19-37.39q-5.86,10.91-12.68,21.41L688.31,602l44.91,46.4q7.3-9.83,14-20Z"/><path class="cls-1" d="M312.4,800.29l-82.77-85.5-82.77-85.5L64.1,543.78,7.67,485.49A404.3,404.3,0,0,0,20,532.74l26.84,27.73L129.62,646l82.77,85.5,55.36,57.19a404.29,404.29,0,0,0,46.83,13.87Z"/><path class="cls-1" d="M195.14,748.17l-82.77-85.5L45.53,593.61A408.47,408.47,0,0,0,207.74,761.19Z"/><path class="cls-1" d="M346.89,766.9l-82.77-85.5-30.61-31.62a299.36,299.36,0,0,1-75.79-78.3L98.58,510.4,15.82,424.9,0,408.55q.08,18.28,1.77,36.34l79.57,82.2,82.77,85.5,82.77,85.5,82.77,85.5L355,809.75q18,2.28,36.26,3Z"/><path class="cls-1" d="M226.2,55.62,297,128.8q12.39-4.87,25.1-8.58L243.45,38.93l-3.32-3.43q-11.55,5.17-22.7,11.05Z"/><path class="cls-1" d="M567.61,718.87l-38.8-40.08q-11.9,5.33-24.15,9.56l45.7,47.21,34.93,36.09q11.25-5.5,22.12-11.66Z"/><path class="cls-1" d="M381.37,733.52,348.05,699.1a298.65,298.65,0,0,1-46-13l62.06,64.11,60.4,62.4q15.56-.68,31-2.53Z"/><path class="cls-1" d="M498.63,785.64l-78.51-81.11a301.18,301.18,0,0,1-33.75-.36l12.25,12.66,82.77,85.5,3.09,3.19q13.75-2.68,27.3-6.3Z"/><path class="cls-1" d="M636.58,652.1,610.1,624.74q-8.86,8.27-18.21,15.7l27.44,28.35,47.95,49.53q9.17-7.69,17.93-16Z"/><path class="cls-1" d="M735.44,167.61a410.34,410.34,0,0,0-79.51-82.13l25.49,26.34Z"/><path class="cls-1" d="M740,551.94l-50.18-51.84q-4.13,12.57-9.39,24.81l42.32,43.72,37.3,38.53q6.22-11,11.79-22.33Z"/><path class="cls-1" d="M671.07,618.71l-28.54-29.49q-7.34,9.47-15.54,18.45l26.84,27.73,48.39,50q8.29-8.77,16-18Z"/><path class="cls-1" d="M377.95,74.35l32.74,33.82a301,301,0,0,1,36,2.67L395.19,57.66,344,4.77Q329.8,7,315.8,10.15Z"/><path class="cls-1" d="M441,1.45l5.94,6.14,82.77,85.5,82.77,85.5,82.77,85.5L778,349.59l34.46,35.59q-1-19.36-3.81-38.44l-13.4-13.84-82.77-85.5L629.7,161.9l-82.77-85.5L479.28,6.51Q460.31,3.08,441,1.45Z"/><path class="cls-1" d="M412.43,41l76.07,78.58a297.16,297.16,0,0,1,53.88,21.15l-29.94-30.93-82.77-85.5L406.18,0Q390,0,374,1.27Z"/></g></g></svg>