<svg xmlns="http://www.w3.org/2000/svg" viewBox="0 0 1162 1162"><defs><style>.cls-1{fill:#613010;}</style></defs><title>Header_Circle_Brown</title><g id="レイヤー_2" data-name="レイヤー 2"><g id="レイヤー_1-2" data-name="レイヤー 1"><path class="cls-1" d="M581,0h-5.27q-9.4.08-18.73.46l1.95,48c7.3-.3,14.72-.45,22.05-.45V0ZM533,2l-.2,0h0l-.65.05h-.13l-.24,0-.19,0h-.14l-.28,0h-.1l-.28,0h0l-.34,0h-.05l-.34,0h0l-.36,0h0l-.37,0h0l-4.85.45h0l-.36,0h0l-.71.07h0l-.35,0h0l-.33,0h-.06l-.32,0h-.07l-.31,0h-.06l-.29,0h-.09l-.29,0H521l-.22,0h-.14l-.24,0-.15,0-.23,0-.18,0-.16,0-.24,0-.16,0-.18,0H519l-.32,0h-.08l-.64.07h-.05l-.42,0h0L512,4.05h0l-.4,0h-.07l-.24,0-.19,0-.17,0-.15,0-.2,0-.21,0-.13,0-.29,0h-.08l-.27,0h-.06l-.33,0h0L515.05,52c7.24-.89,14.61-1.65,21.9-2.24L533,2ZM485.42,7.82h0l-.34.06H485l-.28,0h-.08l-.28,0-.14,0-.17,0-.26,0-.1,0q-9.05,1.53-18,3.33h-.05l-.34.07-.1,0-.18,0-.2,0-.17,0-.21,0-.1,0-.3.06H464l-2.16.45,9.8,47c7.15-1.49,14.42-2.85,21.63-4L485.42,7.82Zm-47,9.79q-8.93,2.25-17.75,4.78h0l-.33.09-.06,0-.31.09-.09,0-.21.06-.17,0-.2.06-.17,0-.09,0-.35.1h0l-3.4,1L429,70c7-2.08,14.14-4,21.22-5.82L438.45,17.62Zm-46,13.66q-11.11,3.81-22,8h0l-.38.15,0,0-.11,0,17.45,44.72c6.8-2.65,13.75-5.2,20.66-7.57l-15.57-45.4Zm-44.7,17.44q-5.26,2.31-10.45,4.71h0l-.59.27-.07,0-.28.13-.13.06L336,54l-.18.09-.12.06-.25.12-.09,0-.25.12,0,0-.3.14-.05,0-.31.14h0q-4.23,2-8.43,4l21.1,43.12c6.56-3.21,13.28-6.33,20-9.26l-19.29-44ZM304.63,69.81q-10.57,5.73-20.86,11.87l24.59,41.22c6.28-3.74,12.71-7.41,19.13-10.88l-22.87-42.2ZM263.42,94.4q-7.53,4.93-14.9,10.08l0,0-.89.62,0,0-.27.19-.06,0-.26.19,0,0-.23.16-.08.06-.23.16-.1.07-.22.15-.12.08-.13.09-.2.14-.12.08-.15.11,0,0-.31.22,0,0-.32.22,0,0-1,.74L271.52,147c5.95-4.25,12.06-8.43,18.18-12.43L263.42,94.4Zm-39,27.9q-5,3.92-10,7.94h0l-.57.46h0l-.27.22,0,0-.26.22,0,0-.53.43-.05,0-.25.2-.05,0-.25.21,0,0-.23.19,0,0-.25.2-.06,0-.24.2-.05,0-.23.19-.06,0-.22.18-.06.05-.23.19-.08.07-.23.19,0,0-.22.19,0,0-.25.21-.05,0-.24.2-.05,0-.25.21h0l-.26.22,0,0-.26.22,0,0-.27.22h0l-2.29,1.93,31,36.63c5.58-4.72,11.33-9.4,17.1-13.89l-29.49-37.87Zm-36.62,31q-3.31,3-6.57,6.13l0,0-.26.24h0l-.26.24,0,0-.24.23,0,0-.23.22,0,0-.23.22,0,0-.21.2-.06.06-.21.2-.08.08-.2.19-.09.09-.15.14-.13.12-.14.14-.11.11-.18.17-.12.11-.1.1-.19.18-.09.09-.19.19-.09.09-.14.14,0,0-.26.25,0,0-.27.26,0,0-.77.75h0l-.77.75h0q-2,2-4,4h0l-.31.31h0l-.36.35,33.92,34c5.17-5.17,10.52-10.29,15.9-15.24l-32.5-35.33Zm-34,33.91L152,189.14l0,0-.22.24-.06.06-.18.2-.07.08-.16.18-.09.1-.17.18-.11.12-.09.09-.21.23,0,0q-5.76,6.35-11.34,12.88l-.06.06-.2.23-.07.09-.15.17-.12.14-.1.12-.16.19-.08.1-.15.17-.07.08-.18.22,0,0,36.59,31.07c4.73-5.57,9.64-11.12,14.6-16.5L153.8,187.21ZM122.75,223.8q-2.42,3.1-4.8,6.23h0l-.21.28,0,0-.2.26,0,0-.17.23-.06.08-.16.21-.07.09-.16.21-.09.11-.12.15-.13.17-.09.12-.17.22-.07.09-.12.15,0,0-.22.3,0,0-.24.31h0q-3.64,4.87-7.18,9.8l39,28c4.26-5.94,8.69-11.87,13.19-17.64L122.75,223.8Zm-27.95,39q-2.05,3.13-4.07,6.29h0l-.19.3,0,0-.19.29,0,0-.18.29h0l-.17.27,0,.07-.17.26,0,.07-.16.26,0,.06-.14.22-.05.09-.15.23-.07.11-.14.22-.08.12-.09.14-.12.18-.09.14-.09.15,0,.08-.17.27-.06.09-.16.26-.05.09-.17.27-.05.08-.1.17,0,0-.2.32,0,0-.21.34h0c-1.74,2.8-3.45,5.61-5.15,8.45l41.19,24.64c3.75-6.27,7.68-12.54,11.69-18.66L94.8,262.81ZM70.16,304c-3.79,7-7.43,14-10.94,21.15v0l-.07.14,43.09,21.15c3.22-6.55,6.62-13.13,10.11-19.55L70.16,304ZM49,347.06q-3.47,7.88-6.71,15.87v0l-.13.33v0l-.27.66,0,0-.12.31,0,.05-.25.63,0,.06-.12.29,0,.07-.12.29,0,.07-.1.25,0,.07-.11.28,0,.09-.11.28,0,.08-.11.27,0,0-.12.29,0,.08-.11.29,0,.08-.11.28,0,.05-.1.26,0,.09-.11.28,0,.08-.11.29v0l44.69,17.5c2.66-6.8,5.5-13.63,8.45-20.32L49,347.06Zm-17.5,44.68c-.38,1.1-.76,2.22-1.13,3.33v0l-.13.38v0l-.2.6,0,.06-.11.33,0,.08-.11.32,0,.08-.06.17,0,.11-.09.27,0,.13-.05.15-.08.24,0,.14-.07.2-.05.16-.06.19,0,.12-.09.27,0,.1-.09.28,0,.08-.09.26,0,.06-.1.3,0,.08-.1.31v0l-.11.34h0l-.11.35h0l-.11.35h0q-1.9,5.87-3.69,11.8v0l-.1.32,0,.07-.09.31,0,.07-.07.23,0,.08,46,13.73c2.09-7,4.35-14,6.73-20.95L31.52,391.74Zm-13.72,46-.05.2V438l0,.19,0,.15-.06.23,0,.16,0,.15-.06.25,0,.11-.07.29,0,.07-.07.28v.05l-.08.33v0l-.08.34h0q-2.52,10.16-4.68,20.47h0l47,9.86c1.5-7.15,3.17-14.36,5-21.43L17.8,437.73Zm-9.85,47-.3,1.84h0l-.12.72v0l-.06.34v0l-.11.67v.07l-.05.31v.07l0,.27v.08l0,.29,0,.11,0,.28,0,.12,0,.19,0,.18,0,.2,0,.16,0,.15,0,.27,0,.11-.06.36v0l0,.21v.06l-.06.38v0q-1.23,8-2.24,16.13l47.63,5.93c.9-7.26,2-14.59,3.17-21.79l-47.35-7.9ZM2,532.31q-.17,2-.33,4.1h0l-.05.72v0l0,.32v.09l0,.25v.12l0,.25v.14l0,.21,0,.22v.12l0,.34v.34l0,.38v0c-.2,2.85-.38,5.68-.53,8.54v0l0,.42v.35l0,.28v1l0,.34V551q-.13,2.62-.24,5.24l48,2c.31-7.32.77-14.71,1.37-22L2,532.31Zm-2,48q0,.37,0,.74H0v3q0,.33,0,.66v2.21H0v.38c0,.23,0,.47,0,.71H0q.1,8.19.42,16.33l48-1.89C48.14,595.3,48,588.11,48,581v-.68l-48-.06Zm49.74,44.11L1.89,628.22l0,.35v.05L2,629v0l0,.3v.06l0,.31v.1l0,.3v.07l0,.25v.11l0,.28v.13l0,.21,0,.18,0,.21v.14l0,.26v.32l0,.23,0,.18V633l0,.25v.14l0,.29v.12l0,.19v.1l0,.33v.09l0,.2v.06l0,.36v.1l0,.33v.09l0,.2v.08l0,.33v.11l0,.29v.14l0,.18V637l0,.3v.11l0,.18,0,.21,0,.2v.14l0,.25,0,.16,0,.17,0,.21,0,.19,0,.16v.15l0,.27v.14l0,.22,0,.16,0,.22v.11l0,.29V641l0,.26v.07l0,.3v.1l0,.31v.06l0,.3v0l0,.33v.06l0,.34h0l0,.35v0l0,.35v0q.44,4.09.94,8.16L52,646.28c-.88-7.25-1.63-14.62-2.22-21.91Zm5.33,43.7L7.7,675.85q1.95,11.87,4.38,23.6l47-9.74c-1.48-7.15-2.83-14.43-4-21.64ZM64,711.16,17.44,722.84c.5,2,1,4,1.53,6h0l.1.39v.05l.09.34,0,.08,0,.17,0,.14.06.22,0,.18,0,.13.07.26,0,.12.07.25,0,.09.07.26,0,.09.08.3,0,.07.09.32h0l.09.34v0l.09.33v0l.19.7h0l.09.35v0l.29,1.07h0l.3,1.08h0l.3,1.07v0l.3,1.06v0l.1.35h0l.1.35h0l.09.33v0l.09.33v0l.09.32v0l.09.32,0,.07.09.31,0,.06.08.28,0,.06.09.3,0,.09.08.29,0,.09.07.24,0,.09.08.27,0,.11.08.27,0,.12.06.2,0,.12.07.24,0,.14.07.25,0,.14,0,.16.07.23,0,.15,0,.16.07.23,0,.16,0,.13.08.28,0,.1,0,.1,46-13.61c-2.07-7-4-14.14-5.8-21.23Zm12.47,42.19L31,768.86l.42,1.22h0l.13.38,0,.05.07.19,0,.07.11.32,0,.11.09.27,0,.12.06.17.08.23.05.15.06.19.06.17.07.19,0,.12.09.25,0,.13.08.24,0,.12.07.21,0,.1.1.27,0,.1.09.27,0,.1.08.21,0,.1.09.26,0,.11.09.27,0,.1.08.23,0,.11.09.24,0,.11.09.27,0,.11.08.22,0,.13.08.22,0,.11.09.26,0,.12.08.23,0,.13.07.21,0,.11.09.25,0,.13.09.26,0,.1.07.2,0,.11.09.25,0,.12.09.25,0,.12.07.19,0,.13.09.24,0,.11.09.26,0,.12.07.2.05.14.08.21,0,.12.09.25,0,.11.08.22.05.14.08.2,0,.12.1.26,0,.11.1.27,0,.08.09.24,0,.08.11.28,0,.09.11.28,0,.07.1.26,0,.06.11.31,0,.05.12.32v0l.26.68h0q.93,2.45,1.88,4.89L84,774c-2.65-6.81-5.18-13.76-7.54-20.67Zm15.94,41-44,19.23c1.07,2.45,2.16,4.89,3.26,7.32h0l.17.37,0,0,.16.36v0l.09.19v0l.16.35,0,.09.12.26.06.12.07.16.1.22.07.15.07.15.09.19.08.16.06.14.11.23.06.13.08.18.08.18.08.17.05.12.11.24.06.12.11.25,0,.1.09.2L54,826l.1.22.05.11.12.25,0,.1.1.22.06.12.1.21.06.12.11.24.06.12.1.21L55,828l.09.18.06.13.11.22.07.14.09.18.09.18.06.12.12.24.06.12.08.16,0,.07.15.32,0,.05.17.35v0q1.16,2.44,2.34,4.86l43.14-21c-3.2-6.57-6.31-13.29-9.24-20Zm19.29,39.55L69.46,856.72l.06.12.08.15.07.14.11.2.07.12.12.22,0,.07.15.28,0,.06.16.3h0l.36.65h0q5.13,9.39,10.59,18.57l41.25-24.54c-3.74-6.28-7.39-12.72-10.86-19.15Zm22.5,37.83L94,898l0,0,.14.21.08.13.11.16.11.17.08.13.14.21.08.12.09.14.11.17.11.17.07.11.15.23.07.1.33.51,0,0,.21.32,0,0,.22.33v0l.36.54h0l.23.35h0q5.23,7.87,10.72,15.57l39.09-27.85c-4.24-6-8.42-12.07-12.41-18.19Zm25.55,35.86L121.84,937l1.36,1.74,0,.05.18.23.07.09.16.21.1.12.09.11.18.23,0,.06q4.5,5.72,9.14,11.33l0,0,.21.25.06.08.11.14.16.19.08.1.14.16.09.11.17.2.06.07.2.24,0,0,2.39,2.84,36.67-31c-4.72-5.58-9.38-11.34-13.86-17.12Zm28.42,33.65L152.8,973.7q4.18,4.56,8.46,9h0l.25.26h0l.5.52,0,0,.24.25,0,0,.76.79,0,0,.25.25h0q3,3.1,6,6.15l34-33.88c-5.16-5.18-10.28-10.54-15.22-15.92Zm31.09,31.2-32.59,35.24q3.85,3.56,7.77,7.06h0l.53.47,0,0,.23.2.08.07.21.19.1.08.13.12.19.17.09.08.46.41h0q4,3.55,8.1,7l31.11-36.55c-5.57-4.74-11.11-9.66-16.48-14.62ZM252.8,1001l-29.58,37.8.11.08,0,0,.3.23.05,0,.32.25h0l.17.13h0l.32.25.05,0,.27.21.05,0,.48.38.06,0,.27.21.06.05.27.21.06,0,.15.12.07.06.25.19.07.05.27.21.06,0,.48.37.07.05.25.19.09.07.26.2.06,0,.16.12.05,0,.28.21.06,0,.26.2.07.05.31.24h0l.16.12.06,0,.27.2.07.05.26.2.06,0,.48.36.08.06.24.18.08.06.25.19.07.06.15.12.09.07.22.17.11.08.2.15.12.09.14.1.19.14.13.1.12.09.18.13.14.11.11.08.21.15.12.09.17.13.14.11.15.11.14.1.18.13.11.08.22.16.09.07.2.15.1.07.2.15.07.05.25.18.07.05.25.19,0,0,.26.19h0l.28.2,0,0,.28.2,0,0q2.71,2,5.45,4l28-39c-5.93-4.26-11.86-8.71-17.62-13.21Zm35.76,25.69-26.37,40.11,1.4.92.05,0,.21.14.14.09.13.09.19.13.12.08.2.13.07,0,.27.17.05,0,.28.18h0q8.48,5.5,17.17,10.71l24.7-41.16c-6.26-3.76-12.53-7.7-18.64-11.71Zm37.75,22.65-23,42.15.07,0,.18.1.14.08.19.1.12.07.22.12.14.07.14.07.23.12.11.06.26.14.09,0,.17.09.08,0,.29.15.07,0,.32.17,0,0,.56.3,0,0,.33.18,0,0,.95.5h0l1,.51h0l.38.2h0q7.52,4,15.16,7.74l21.21-43.06c-6.55-3.23-13.12-6.64-19.54-10.13Zm39.48,19.44-19.4,43.9,1.15.51h0l.37.16,0,0,.38.16h0l.2.09h0l.37.16,0,0,.38.16h0l.2.09h0l.37.16.06,0,.35.15h0l.6.26h0l.39.17h0l1,.43h0q7.21,3.09,14.51,6h0l.35.14.08,0,.18.07.22.09.14.06.2.08.15.06.21.08.07,0,17.56-44.67c-6.79-2.67-13.62-5.52-20.3-8.47Zm40.94,16.09L391,1130.24q7.42,2.57,14.93,4.94h0l.7.22h0l.33.11h0l.32.1h0l.31.1h0l.31.1.07,0,.3.09.07,0,.28.09h0l.3.09.09,0,.28.09.11,0,.24.07.1,0,.24.07.12,0,.26.08.12,0,.2.06.18.06.18.06.13,0,.25.08.14,0,.19.06.18.06.17.05.14,0,.24.07.14,0,.19.06.19.06.17.05.15,0,.24.07.07,0,13.78-46c-7-2.1-14-4.37-20.94-6.76Zm42.14,12.63L437,1144q3.79,1,7.61,1.88h0l.32.08H445l.28.07.06,0,.29.07.12,0,.27.06.12,0,.18,0,.22.05.15,0,.19,0,.06,0,.37.09h0q6.47,1.52,13,2.9l9.92-47c-7.15-1.51-14.35-3.19-21.43-5Zm43.05,9.09-8,47.34c2,.34,4,.67,6.06,1h0l.4.06h0l.21,0h.07l.34.05.1,0,.29,0,.13,0,.17,0,.16,0,.23,0,.16,0,.15,0,.25,0,.16,0,.15,0,.24,0,.17,0,.15,0,.25,0,.16,0,.16,0,.21,0,.19,0,.15,0,.25,0,.14,0,.18,0,.19,0,.21,0,.15,0,.26,0,.13,0,.18,0,.13,0,.27,0,.13,0,.23,0,.16,0,.2,0,.12,0,.27,0,.13,0,.22,0,.15,0,.21,0,.13,0,.28,0,.11,0,.25,0h.08l.29,0h.09l.3,0h.09l.27,0h.06l.31,0H501l.32,0h0l.3,0h.05l.33,0h.05l.72.1h0l.37,0h0l4.48.58,6-47.62c-7.25-.91-14.58-2-21.78-3.2Zm43.68,5.5-4,47.83q3.35.28,6.71.53h0l1.12.08h0l1.12.08h0q7.47.51,15,.84l2.07-48c-7.31-.32-14.71-.79-22-1.4Zm66.1,1.51c-6.85.26-13.82.39-20.7.39h-1.36l-.12,48h12.27l1.39,0h0l2.79-.06h0l1.39,0h0l.68,0h0l.65,0h.07l.62,0h3.38l.7,0-1.83-48Zm43.91-3.48c-7.25.87-14.62,1.61-21.91,2.19l3.79,47.85q9.47-.75,18.85-1.8h0l.43,0h0l.22,0h0l.37,0h.09l.61-.07h.1l.31,0h.12l.18,0H649l.29,0,.13,0,.26,0,.15,0,.18,0,.14,0,.25,0,.16,0,.16,0,.25,0,.15,0,.17,0h.11l-5.75-47.65Zm43.44-7.08c-7.15,1.47-14.43,2.81-21.64,4l7.72,47.38,4.22-.7h.07l.35-.06h.08l.19,0,.17,0,.22,0,.15,0,.23,0,.18,0,.15,0,.23,0,.16,0,.19,0,.12,0,.28,0,.12,0,.28,0,.1,0,.23,0,.09,0,.3-.05.09,0,.31-.05h.05l.28,0H684l.3-.05.09,0,.31-.06h0l.29-.05h.08l.3-.06.09,0,.28-.05h.07l.28-.05.09,0,.3-.06.08,0,.27,0H687l.28-.05.09,0,.3-.06.1,0,.25,0h.07l.29-.05.11,0,.28-.05.1,0,.24,0,.09,0,.29-.05.11,0,.28-.05.11,0,.21,0,.11,0,.28-.05.12,0,.28-.05.1,0,.21,0,.13,0,.26-.05.13,0,.22,0,.18,0,.18,0,.14,0,.25,0,.15,0,.17,0,.22,0,.16,0,.15,0,.25,0,.15,0,.16,0,.23,0,.17,0,.15,0,.25,0,.15,0,.17,0,.22,0,.16,0,.16,0,.24,0,.15,0,.17,0,.21,0,.18,0,.15,0,.25-.05.15,0,.17,0,.18,0,.21,0,.14,0,.27-.05.13,0,.19,0,.09,0-9.68-47Zm42.68-10.65c-7,2.06-14.15,4-21.23,5.77l11.62,46.57q7.11-1.78,14.16-3.72h0l.71-.2h0l.32-.09.07,0,.3-.08.09,0,.22-.06.12,0,.24-.07.14,0,.16,0,.26-.07.09,0c2.08-.59,4.19-1.19,6.26-1.8l-13.55-46Zm41.65-14.16c-6.81,2.64-13.77,5.16-20.68,7.51l15.45,45.44,4.42-1.52,0,0,.33-.12.08,0,.17-.06.16-.05.21-.07.16-.06.15-.05.24-.09.1,0,.28-.1.07,0,.29-.1h0l.32-.11.05,0,.32-.11h0q4.93-1.75,9.83-3.59h0l.33-.12h0l.32-.12h0l.3-.11.08,0,.28-.1.1,0,.22-.08.15-.06.18-.07.15-.06.21-.08.19-.07,0,0,.38-.14h0l2.25-.87-17.33-44.76Zm40.34-17.58c-6.57,3.19-13.3,6.29-20,9.21l19.18,44c7.36-3.21,14.6-6.54,21.8-10l-21-43.17Zm38.75-20.87c-6.29,3.73-12.73,7.37-19.16,10.84l22.76,42.26.64-.35,0,0,.28-.15.07,0,.26-.14.09-.05.19-.1.13-.07.2-.11.14-.07.16-.09.21-.12.07,0,.33-.18h0c1.73-.95,3.44-1.89,5.17-2.85l0,0,.31-.18.06,0,.31-.17.06,0,.17-.09.08,0,.27-.15.11-.06.19-.11.17-.1.13-.07.23-.13.11-.06.2-.11.12-.07.22-.13.07,0,.28-.16.05,0,.3-.17h0q4.73-2.68,9.4-5.46l-24.49-41.29Zm36.91-24c-6,4.23-12.09,8.4-18.21,12.38l26.17,40.24,0,0,.27-.18h0l.28-.18,0,0,.29-.19h0q4.86-3.17,9.65-6.44l0,0,.28-.19,0,0,.28-.19,0,0,.25-.17,0,0,.25-.17.09-.06.23-.16.11-.07.14-.1.2-.14.12-.08.14-.1.18-.13.17-.11,0,0,.31-.22,0,0c2.11-1.46,4.19-2.91,6.28-4.4l-27.81-39.13Zm34.82-27c-5.59,4.71-11.35,9.37-17.13,13.84l29.39,37.95,3.84-3h0l.86-.68,0,0,.26-.21,0,0,.27-.21h0l.26-.2,0,0,.25-.2.06,0,.25-.2.05,0,.22-.18.06,0,.22-.18.08-.06.22-.17.1-.08.22-.17.08-.06.17-.13.1-.08.2-.16.1-.08.2-.16.11-.09.15-.12.14-.11.16-.13.11-.09.19-.15.13-.1.12-.09.2-.16.1-.08.21-.17.1-.08.14-.11.16-.13.16-.13.09-.07.22-.18.1-.08.2-.16.11-.09.14-.11.15-.12.15-.12.11-.09.19-.15.12-.1.12-.1.2-.16.11-.09.16-.13.13-.1.16-.13.09-.08.21-.17.09-.07.22-.18.07-.06.21-.17,0,0,.24-.2.05,0,.25-.21,0,0,.27-.22h0l.57-.47h0l3.45-2.88L924.2,988.82Zm32.49-29.74c-5.19,5.15-10.55,10.27-15.94,15.2l32.41,35.41,1.93-1.77,0,0,.26-.24h0l.26-.24,0,0,.25-.23,0,0,.24-.22,0,0,.23-.22,0,0,.23-.21,0,0,.23-.21.07-.06.22-.2.07-.06.17-.16.09-.08.19-.18.09-.08.2-.19.08-.08.17-.16.11-.11.15-.14.09-.09.2-.18.09-.09.2-.18.09-.08.16-.15.1-.1.17-.16.1-.09.2-.19.09-.08.18-.17.09-.09.18-.17.06-.06.21-.2.08-.08.21-.2.06-.06.2-.19.06-.06.21-.2,0,0,.23-.22,0,0,.24-.23h0l.26-.25h0l.26-.25,0,0,.26-.25h0q3.79-3.63,7.51-7.33l-33.83-34Zm29.94-32.3c-4.74,5.56-9.67,11.1-14.64,16.46l35.2,32.63q2.29-2.47,4.55-5l0,0,.22-.25,0,0,.22-.24,0,0,.19-.21,0-.05.2-.22.07-.08.19-.21.08-.09.14-.15.13-.14.12-.14.1-.11.16-.18.12-.13.08-.09.2-.22.06-.06.23-.26,0,0,.42-.47h0q4.19-4.7,8.28-9.49l-36.51-31.16Zm27.19-34.65c-4.27,5.93-8.72,11.85-13.24,17.6l37.76,29.63v0l.19-.24,0-.06.19-.24,0-.06.2-.25,0,0,.2-.25,0,0,.2-.26,0,0,.21-.27,0,0,.44-.56v0l.22-.28v0l.68-.87h0l.91-1.18h0l1.59-2.08h0l.68-.89h0l.9-1.19v0l.66-.88v0l.21-.29v0l.44-.59h0l.21-.28,0,0,.2-.27,0,0,.2-.26h0l.2-.26,0-.06.19-.25,0-.06.19-.25,0-.06.16-.22,0-.06.18-.24.06-.09.17-.23.06-.08.14-.19.09-.12.13-.17.08-.11.15-.2.1-.13.1-.13.14-.19.08-.11.15-.21.08-.11.11-.15.06-.08.19-.26,0-.06.21-.28,0,0,2.29-3.15-38.95-28.05Zm24.24-36.76c-3.77,6.26-7.72,12.53-11.74,18.63l40.07,26.42.13-.19,0,0,.11-.16,0-.07.18-.27.05-.08.17-.26.05-.08.33-.5.05-.08.17-.25.06-.09.15-.24.07-.1.1-.15.08-.12.14-.22.08-.12.12-.18.1-.16.08-.13.13-.21.08-.13.1-.15.11-.17.1-.15.08-.12.14-.22.07-.11.14-.22.07-.11.12-.18.06-.09.15-.24.06-.09.16-.25.05-.08.16-.25,0,0,.15-.24,0-.07.16-.26,0-.07.17-.26,0,0,.16-.24,0-.05.17-.27,0-.06.17-.27,0-.05.18-.28h0l.19-.29,0,0,.18-.29,0,0,.18-.29,0,0,.18-.29h0l.18-.29,0,0,.18-.28,0,0,.37-.59,0,0,.18-.28,0-.05.18-.29v0l.19-.3h0l.19-.3,0,0,.18-.29,0,0,.36-.57,0-.05.17-.27,0-.06.17-.27,0-.07.14-.23,0-.07.15-.25.06-.1.14-.23.07-.11.11-.17.1-.17.09-.14.09-.15.11-.18.1-.16.06-.1.16-.26,0-.07.19-.32,0,0c.74-1.21,1.47-2.41,2.2-3.63l-41.13-24.75Zm21.11-38.62c-3.23,6.55-6.65,13.12-10.16,19.53l42.12,23c3.83-7,7.53-14.12,11.07-21.29l-43-21.26ZM1077,776.54c-2.68,6.79-5.54,13.62-8.5,20.29l43.88,19.46q1.16-2.62,2.3-5.27v0l.14-.34,0-.08.1-.23.07-.16.07-.16.06-.14.09-.22.06-.15.08-.18.08-.19.06-.14.1-.24.05-.12.08-.19.05-.12.1-.23,0-.11.11-.26,0-.1.1-.23,0-.11.1-.24,0-.09.11-.26,0-.11.1-.25,0-.11.08-.2,0-.11.1-.25,0-.12.09-.22.07-.16.07-.17.07-.18.08-.19.06-.15.09-.22.06-.15.06-.13.1-.25,0-.12.23-.56,0-.07.14-.34,0,0c1.17-2.83,2.3-5.64,3.43-8.49L1077,776.54ZM1091.43,735c-2.11,7-4.39,14-6.78,20.93L1130,771.65q3.07-8.84,5.86-17.8h0l.11-.35v0l.21-.67,0-.06.09-.3,0-.09.08-.26,0-.11.06-.21,0-.14.07-.23.05-.17,0-.11.09-.31,0-.07.59-1.94-46-13.84Zm10.92-42.61c-1.52,7.14-3.21,14.35-5,21.42l46.5,11.92c.29-1.14.57-2.25.86-3.4l0-.06.08-.33,0-.1,0-.18,0-.2,0-.19,0-.16,0-.18.05-.21,0-.13.07-.27,0-.11.06-.23,0-.09.07-.29,0-.08.08-.31v0l.08-.32h0l.08-.34v0l.08-.34h0q1-4.19,2-8.39h0l.16-.72h0l.08-.34v0l.07-.32v-.06l.06-.27,0-.08.06-.28,0-.12.06-.27,0-.13,0-.18.05-.25,0-.13,0-.19v-.05l.08-.38v0q.38-1.74.75-3.47l-47-10Zm7.35-43.39c-.92,7.25-2,14.58-3.23,21.78l47.33,8q1.7-10,3-20.12v-.06l0-.34v-.11l0-.19,0-.24,0-.14,0-.24v-.1l0-.29v-.06l0-.34v0l.19-1.47L1109.71,649Zm3.75-43.89c-.32,7.31-.81,14.71-1.43,22l47.83,4.09c.68-7.93,1.2-15.93,1.55-24l-48-2.13Zm48.13-45.87-48,1.77c.24,6.63.37,13.37.37,20q0,1,0,2l48,.18q0-.23,0-.46c0-.35,0-.71,0-1.06h0V581h0c0-.1,0-.2,0-.3v-1.09q0-.15,0-.3V577.9q0-.14,0-.27v-.08c0-.21,0-.41,0-.62v-.36s0,0,0,0,0-.21,0-.32v-1.06q0-.16,0-.33h0v-.34c0-.22,0-.44,0-.66v0c0-.22,0-.45,0-.67h0q-.09-7-.35-13.93Zm-3.73-47.84-47.66,5.69c.87,7.25,1.59,14.62,2.16,21.92l47.85-3.73V535l0-.27v-.31l0-.25v-.34l0-.2,0-.2v-.13l0-.28v-.12l0-.24v-.08l0-.3v-.11l0-.3v-.07l0-.28v-.07l0-.32v-.06l-.06-.7v0l0-.36v0l-.06-.74h0q-.79-9-1.86-17.88ZM1150.22,464l-47,9.61c1.46,7.15,2.79,14.43,4,21.65l47.39-7.66q-.87-5.38-1.84-10.72v0l-.06-.33v-.07l-.05-.29,0-.11,0-.21,0-.14,0-.25,0-.16,0-.12-.06-.32v-.07q-1-5.41-2.1-10.78Zm-11.56-46.57-46.07,13.49c2.05,7,4,14.15,5.74,21.24l46.59-11.56c-.29-1.16-.58-2.32-.87-3.48v0l-.16-.63v-.05l-.09-.34,0-.1,0-.17-.06-.23,0-.16,0-.15-.06-.22,0-.17,0-.14-.07-.26,0-.12-.07-.27,0-.08-.07-.25,0-.09-.08-.3,0-.08L1143,433v0l-.08-.32v0l-.09-.33v0q-2-7.43-4.12-14.78ZM1123.27,372l-44.78,17.27c2.63,6.81,5.15,13.77,7.49,20.69l45.46-15.4c-.87-2.57-1.75-5.11-2.65-7.66h0l-.22-.61,0,0-.13-.36,0-.05-.13-.37v0l-.07-.19,0-.07-.11-.32,0-.09-.11-.3,0-.09-.06-.18,0-.12-.09-.26,0-.12-.09-.26,0-.12-.06-.17-.08-.22-.06-.16-.05-.15-.08-.21-.06-.17-.05-.14-.09-.24-.05-.14-.07-.18-.06-.16-.08-.21,0-.12-.09-.25,0-.13-.07-.19-.06-.17-.07-.18,0-.13-.09-.25,0-.13-.08-.22-.06-.15-.07-.18,0-.12-.09-.25,0-.12-.1-.26,0-.11-.08-.2,0-.1-.1-.26,0-.13-.09-.25,0-.12-.08-.2,0-.13-.09-.23,0-.11-.1-.27,0-.1-.09-.25,0-.08-.1-.26,0-.09-.1-.27,0-.1-.1-.26,0-.08-.1-.26,0-.08-.11-.28,0-.09-.11-.29,0-.06-.1-.26,0-.07-.11-.29,0-.07-.11-.3,0-.06-.11-.28,0,0-.12-.31v0Zm-19.12-44L1061,348.89c3.19,6.57,6.28,13.3,9.18,20l44-19.12q-2.62-6-5.36-12v0l-.15-.33h0l-.3-.65,0,0-.14-.31,0,0-.14-.31v0l-.14-.29,0-.06-.13-.29,0-.07-.13-.28,0-.06-.11-.23,0-.1-.12-.25-.06-.12-.11-.24L1107,334l-.08-.16-.1-.21-.06-.13-.08-.17,0,0-.16-.34,0-.06-.16-.33,0,0q-1.07-2.27-2.16-4.52Zm-22.7-42.28-41.32,24.43c3.72,6.29,7.36,12.74,10.81,19.17l42.29-22.7q-1.6-3-3.23-5.92h0l-.17-.31,0,0-.17-.3,0,0-.15-.27,0,0-.15-.28,0-.08-.15-.26,0-.09-.12-.21-.07-.12-.12-.21-.06-.1-.13-.24-.06-.11-.11-.19-.09-.16-.08-.14-.12-.22-.07-.13L1088,297l0-.07-.17-.3,0-.06-.19-.34v0q-3-5.28-6.06-10.5Zm-26.11-40.26-39.16,27.76c4.23,6,8.39,12.1,12.36,18.22l40.27-26.12q-1.94-3-3.91-6h0l-.62-.93h0l-.2-.3v0l-.62-.92h0q-1.88-2.8-3.8-5.57h0l-.63-.91v0l-.2-.29,0,0-.39-.57,0-.05-.18-.25-.05-.07-.17-.24-.06-.09-.12-.17-.11-.16-.1-.14-.1-.15-.05-.07-.19-.27,0,0-1.84-2.61Zm-29.34-38-36.75,30.88c4.7,5.6,9.35,11.37,13.82,17.15l38-29.34-2.17-2.79,0,0-.22-.29,0-.06-.25-.32h0l-.12-.15-.08-.11-.15-.19-.09-.12-.12-.15-.14-.17-.08-.11-.16-.21-.08-.1-.14-.18-.08-.1-.16-.2-.06-.08-.18-.23-.06-.07-.19-.24,0,0-.18-.23,0,0-.21-.26,0,0-.21-.27,0,0-.44-.56,0,0-.22-.28v0q-2.1-2.63-4.23-5.23h0l-.47-.57h0l-.22-.27,0,0-.21-.26,0,0-.2-.25,0,0-.2-.24-.05-.06-.19-.23-.07-.09-.14-.17-.12-.15-.09-.11-.19-.22-.06-.07-2.47-3ZM993.65,172l-34.09,33.79c5.15,5.19,10.25,10.56,15.18,16l35.45-32.36q-6.57-7.2-13.38-14.18h0l-.51-.52h0l-.23-.24,0,0-.21-.22-.07-.07-.18-.18-.1-.1-.13-.13-.16-.16-.11-.11-.13-.14,0,0-.27-.28h0l-.94-.95ZM958.5,139.34l-31.2,36.47c5.55,4.75,11.08,9.68,16.44,14.66l32.68-35.16c-1.69-1.57-3.36-3.11-5.07-4.66l0,0-.25-.23-.07-.06-.21-.19-.09-.08-.13-.11-.14-.13-.15-.13-.13-.12-.13-.12-.16-.15-.1-.09-.2-.18-.08-.07-.21-.19-.06-.05-.21-.19-.05,0-.23-.2-.07-.06-.23-.21,0,0-.24-.22h0l-.25-.22,0,0-.24-.22,0,0-.25-.22,0,0-.25-.22,0,0-.25-.22,0,0-.24-.22,0,0-.24-.21,0,0-.23-.21-.06-.05-.23-.2-.07-.06-.22-.2-.07-.06-.18-.16L965,145l-.2-.18-.1-.09-.2-.18-.1-.09-.14-.12-.17-.15-.11-.1-.16-.14-.14-.12-.14-.12-.06-.05-.26-.22,0,0c-1.55-1.35-3.11-2.7-4.67-4Zm-37.72-29.67-28.1,38.91c5.92,4.28,11.84,8.74,17.59,13.26l29.68-37.72-.88-.69h0l-.27-.21-.06,0-.25-.19-.06,0-.2-.15-.11-.08-.18-.14-.12-.1-.14-.11-.19-.15-.07-.05-.28-.22,0,0c-2.76-2.14-5.51-4.24-8.3-6.33l0,0-.85-.64,0,0-.29-.22-.05,0-.28-.21-.05,0-.16-.12-.06,0-.27-.2-.07-.06-.24-.18-.09-.07-.15-.11-.19-.14-.13-.1-.12-.09-.21-.15-.11-.08-.18-.13-.15-.11-.13-.1-.15-.11-.17-.13-.12-.09-.18-.13-.14-.1-.12-.09-.2-.15-.13-.09-.14-.1-.19-.14-.12-.09-.18-.13-.15-.11-.13-.1-.12-.09-.21-.15-.09-.07-.25-.18-.07-.05-.5-.36,0,0-.31-.23,0,0-.44-.32Zm-40-26.47L856,124.3c6.25,3.77,12.52,7.73,18.61,11.76L901,96q-10-6.61-20.29-12.82ZM838.68,60.13l-21.32,43c6.54,3.24,13.11,6.67,19.52,10.18L860,71.23q-10.51-5.76-21.28-11.1ZM794.84,40.62,777.17,85.25c6.79,2.69,13.61,5.56,20.28,8.53L817,49.92l-.45-.2-.1,0-.25-.11L816,49.5l-.14-.06-.23-.1-.12-.05-.25-.11-.06,0L815,49l-.08,0-.29-.13-.06,0-.31-.13h0l-.66-.29h0q-5.14-2.25-10.34-4.4h0l-1-.43h0l-.34-.14h0l-.67-.27,0,0-.32-.13h0l-.31-.13h0l-.3-.12-.07,0-.29-.12-.07,0-.29-.12,0,0-.26-.11-.08,0-.27-.11-.1,0-.26-.11-.1,0-.21-.08-.1,0-.25-.1-.13-.05-.25-.1-.11,0-.19-.08-.17-.07-.19-.08-.13-.05-.23-.09-.15-.06-.14-.06-.22-.09-.15-.06-.15-.06-.22-.09-.16-.06-.14-.05-.12,0Zm-45.31-15.8-13.9,45.94c7,2.11,14,4.41,20.92,6.81l15.8-45.32q-9.11-3.18-18.36-6.06h0l-.62-.19-.06,0-.33-.1-.09,0-.29-.09-.11,0-.17-.05-.17-.05-.19-.06-.18-.06-.13,0-.27-.08-.11,0-.28-.09-.07,0-.28-.09h0l-.32-.1h0l-.7-.21Zm-46.46-12L693,59.78c7.14,1.53,14.35,3.23,21.42,5l12-46.48q-6.15-1.58-12.35-3h0l-.35-.08h0l-.72-.17h0L712.6,15h0l-.72-.17h0l-1.08-.25h0l-1.09-.25h0q-3.3-.74-6.61-1.45Zm-47.3-8.08-6.12,47.61c7.25.93,14.57,2,21.77,3.26l8.08-47.32q-11.79-2-23.73-3.55ZM608,.61l-2.19,48c7.31.33,14.71.82,22,1.46L631.9,2.2q-3.35-.29-6.7-.54h0l-.34,0h0l-.32,0h-.1l-.28,0H624l-.22,0h-.14l-.25,0h-.28l-.37,0h0l-.67,0h0c-4.68-.33-9.35-.6-14.05-.81ZM581,0V48h2.72L584,0h-3Z"/></g></g></svg>