<svg xmlns="http://www.w3.org/2000/svg" viewBox="0 0 813 813.11"><defs><style>.cls-1{fill:#fff;}</style></defs><title>Header_Circle_White</title><g id="レイヤー_2" data-name="レイヤー 2"><g id="レイヤー_1-2" data-name="レイヤー 1"><path class="cls-1" d="M73.23,359.42,111,364.13q1.72-12,4.35-23.64L76.21,335.6,7.79,327.06q-2.32,11.74-4,23.69Z"/><path class="cls-1" d="M67.29,407,108,412.13q-.22-12,.54-24.12l-38.29-4.78-69-8.62q-1,12-1.21,24Z"/><path class="cls-1" d="M20,280.22q-3.76,11.55-6.83,23.33l66,8.24,42.48,5.3q3.7-11.81,8.34-23.14l-47.85-6Z"/><path class="cls-1" d="M55.4,502.31,127,511.25q-4.66-12.38-8.24-25.21L58.37,478.5,5.13,471.85q2,12.45,4.84,24.79Z"/><path class="cls-1" d="M61.34,454.68,113,461.13q-2.27-12.17-3.54-24.63l-45.13-5.63-64.11-8q.47,12.23,1.69,24.4Z"/><path class="cls-1" d="M273.73,674.68l2,.25a297.16,297.16,0,0,1-49.29-30.34l-67.84-8.47L63.1,624.2q8.61,13.55,18.36,26.48l74.19,9.26Z"/><path class="cls-1" d="M783.55,254.59q-5.24-13-11.37-25.6L690.4,218.78l-58.17-7.26a301.17,301.17,0,0,1,20.58,26.75l34.62,4.32Z"/><path class="cls-1" d="M47.86,598.11l113.73,14.2,32.75,4.09a301,301,0,0,1-23.76-27.15l-6-.75L46.48,573.76l-11.26-1.41Q41.08,585.46,47.86,598.11Z"/><path class="cls-1" d="M91.07,216.53l77.62,9.69q8.68-11.4,18.38-21.89L94,192.71,63.1,188.85c-3,4.7-5.89,9.45-8.69,14.29q-2.37,4.09-4.63,8.23Z"/><path class="cls-1" d="M221,136l47.54,5.93a298.65,298.65,0,0,1,44-18.7L224,112.19l-86.13-10.75q-11.71,10.28-22.54,21.37Z"/><path class="cls-1" d="M788.6,545.46q4.17-11.49,7.63-23.23l-23.42-2.92L687,508.59q-4.28,11.76-9.49,23l92.32,11.52Z"/><path class="cls-1" d="M501,775.6,382.9,760.86,264.81,746.13,165,733.67a407.3,407.3,0,0,0,38,24.93q4.55,2.63,9.16,5.14l49.63,6.19,118.08,14.74L498,799.42l8.95,1.12q5.08-1.3,10.15-2.73a407.3,407.3,0,0,0,43-14.82Z"/><path class="cls-1" d="M16.53,521.65q3.78,12.78,8.34,25.23l24.58,3.07,102.82,12.83q-7.76-12.61-14.28-26L52.43,526.13Z"/><path class="cls-1" d="M578.27,156.41,567.12,155a298.65,298.65,0,0,1,38,28.93l88.22,11,65,8.12q-7.77-13.41-16.6-26.26l-45.45-5.67Z"/><path class="cls-1" d="M614.45,620.46l25.42,3.17,102,12.73q7.49-10.93,14.29-22.4L642.84,599.82l-8.17-1Q625.09,610.14,614.45,620.46Z"/><path class="cls-1" d="M784.71,424l-79.84-10q-.31,11.92-1.6,24l78.46,9.79,28.74,3.59q1.34-12,2-23.94Z"/><path class="cls-1" d="M85.12,264.16l55.35,6.91q5.93-11.61,12.82-22.59l-65.2-8.14-49.87-6.22q-5.31,11.33-9.9,23Z"/><path class="cls-1" d="M299.73,798.86a412.77,412.77,0,0,0,113.77,14.2L377,808.49Z"/><path class="cls-1" d="M227,88.38l118.08,14.74,43.68,5.45a299.36,299.36,0,0,1,108.13,13.5l84.36,10.53,118.08,14.74,22.56,2.82q-11.53-14.2-24.19-27.21L584.21,108.78,466.13,94,348,79.3,230,64.56l-36.08-4.5q-15.45,9.51-30.14,20.42Z"/><path class="cls-1" d="M97,168.9l112,14A301.19,301.19,0,0,1,235.55,162l-17.48-2.18L100,145.08l-4.38-.55q-9,10.7-17.31,22Z"/><path class="cls-1" d="M633.47,743.77,625,742.71,506.92,728,388.84,713.23,270.76,698.5,152.67,683.76l-49.14-6.13q12.91,14.46,27.08,27.57l19.09,2.38,118.08,14.74L385.87,737,504,751.79l96.49,12Q617.38,754.61,633.47,743.77Z"/><path class="cls-1" d="M636.9,647.45l-46.7-5.83a301,301,0,0,1-29.71,20.48l73.44,9.17,73,9.12q9.68-10.6,18.59-21.87Z"/><path class="cls-1" d="M631,695.08,522.43,681.54a297.15,297.15,0,0,1-55.24,17.29l42.71,5.33L628,718.9l33.5,4.18q12.6-10.15,24.3-21.15Z"/><path class="cls-1" d="M232.93,40.75,351,55.48,469.1,70.22,587.18,85l80.48,10a404.29,404.29,0,0,0-39.24-29.08l-38.27-4.78L472.07,46.41,354,31.67l-79-9.85a404.28,404.28,0,0,0-45.19,18.55Z"/><path class="cls-1" d="M790.65,376.41l-88.54-11.05q1.69,12.12,2.4,24.49l83.17,10.38L813,403.38q-.08-12.18-.88-24.3Z"/><path class="cls-1" d="M766.87,566.93,665.81,554.31q-6.61,11.56-14.18,22.42l112.27,14,4.75.59q5.76-11.27,10.78-22.84Z"/><path class="cls-1" d="M778.76,471.67l-79-9.86q-2.24,12-5.4,23.51l81.41,10.16,26.6,3.32q2.7-11.69,4.73-23.6Z"/><path class="cls-1" d="M796.6,328.78,690.72,315.56q4,12.32,6.88,25l96,12,16.11,2q-1.59-12.39-4-24.68Z"/><path class="cls-1" d="M357,7.85,475,22.59,570.5,34.51A409,409,0,0,0,338.91,5.6Z"/><path class="cls-1" d="M797.71,295.92c-1.52-5.38-3.17-10.7-4.91-16L684.46,266.41l-15.62-1.95q6.81,12.54,12.43,25.74l.22,0L799.57,305l.6.08Q799,300.47,797.71,295.92Z"/></g></g></svg>