<svg xmlns="http://www.w3.org/2000/svg" width="442.045" height="228.567" viewBox="0 0 442.045 228.567">
  <defs>
    <style>
      .cls-1 {
        fill: #fedf00;
      }

      .cls-2 {
        fill: #231815;
      }
    </style>
  </defs>
  <title>qpic_logo</title>
  <g id="レイヤー_2" data-name="レイヤー 2">
    <g id="ヘッダーテキスト">
      <path class="cls-1" d="M172.087,228.567v-67.5l-24.305,26.286-14.093-16.09-1.432,2.716L92.653,185.3,25.965,159.346,0,92.663,25.958,25.971,92.653,0l66.7,25.969L175.74,56.8h45.021l16.3-6.511,42.729,17.133,8.415,9.93V56.8h6.1l-.574-.56-8.693-21.077,8.69-20.792,20.883-8.684L335.53,14.3l8.746,20.953-8.611,20.917-.636.628h6.089V87.421l11.359-18.653,46.3-18.483,32.865,12.336,10.4,4.533V169.043l-10.635,4.478-32.83,12.39L352.37,167.879l-11.25-18.428v29.859H288.208v-28l-8.371,15.809-40.4,18.788L225,180.476v48.092Zm0-94.066v-2.535l-.842,1.693.842.842Zm217.882-6.316,7.688,3.054,5.439-1.193,8.617-8.521,2.814-3.4-2.862-3.5-8.387-8.237-.282-.165-4.874-1.066-7.979,3.253-3.437,9.734,3.264,10.042ZM233.628,105.156l-6.763,2.667-3.074,10.32,3.246,10.524,6.5,2.571,5.824-2.64.14-.16,3.224-9.829-3.17-10.725-5.924-2.729Zm-140.975-48L67.55,67.545l-10.4,25.117,10.4,25.109L90.51,128.094,71.067,108.655l37.566-37.6,19.452,19.449L117.76,67.553l-25.107-10.4Z"/>
      <path class="cls-2" d="M237.064,70.285q-15.705,0-28.065,12.366V72.8H188.087V212.567H209V153.187q12.542,12.725,28.441,12.724,18.387,0,30.482-13.467,12.163-13.571,12.17-33.921,0-20.819-12.266-34.483Q255.736,70.286,237.064,70.285Zm14.4,68.774a22.661,22.661,0,0,1-17.931,8.18q-11.524,0-18.588-8.092-7.16-8.262-7.155-21,0-13,7.155-20.995t18.682-7.992a22.838,22.838,0,0,1,18.033,8.271q7.061,8.176,7.061,21.183Q258.722,130.88,251.465,139.059ZM324.286,25.681a12.849,12.849,0,0,1,3.99,9.569,13.162,13.162,0,0,1-3.99,9.669,12.888,12.888,0,0,1-9.577,3.995,13.655,13.655,0,0,1-13.665-13.755,13.662,13.662,0,0,1,13.573-13.476A13.17,13.17,0,0,1,324.286,25.681ZM304.208,72.8h20.911v90.515H304.208Zm74.3,24.631q-7.8,8.262-7.8,20.716,0,12.739,7.527,20.916,7.625,8.176,19.425,8.18a26.627,26.627,0,0,0,13.289-3.251q5.578-3.167,13.1-12.269v27.6a54.9,54.9,0,0,1-25.465,6.594q-21,0-35.124-13.567-14.122-13.653-14.125-33.915a45.9,45.9,0,0,1,14.313-34.2q14.3-13.94,35.132-13.943a52.46,52.46,0,0,1,25.27,6.418v27.786q-7.157-8.74-12.824-11.99a24.977,24.977,0,0,0-13.1-3.342A25.835,25.835,0,0,0,378.508,97.427ZM144.034,41.283a72.768,72.768,0,0,1,13.627,83.757L141.51,108.88a51.4,51.4,0,1,0-32.559,32.641L125.1,157.67A72.658,72.658,0,1,1,144.034,41.283ZM93.691,108.65l54.094,54.082,14.959-14.947L108.638,93.691Z"/>
      <g>
        <g>
          <path d="M239.637,194.695h2.1a.527.527,0,0,0,.521-.42,7.515,7.515,0,0,0,.18-1.742.441.441,0,0,1,.25-.38.49.49,0,0,1,.451-.02,1.216,1.216,0,0,1,.521.44.937.937,0,0,1,.18.541,4.428,4.428,0,0,1-.561,2.423,1.593,1.593,0,0,1-1.442.641h-2.423a2.153,2.153,0,0,1-1.632-.481,2.892,2.892,0,0,1-.431-1.862v-9.191c0-.093-.054-.14-.16-.14h-4.385c-.107,0-.161.047-.161.14a26.632,26.632,0,0,1-.541,3.484,16.7,16.7,0,0,1-1.031,3.063,10.108,10.108,0,0,1-1.8,2.733,11.694,11.694,0,0,1-2.693,2.153.913.913,0,0,1-.44.12.71.71,0,0,1-.22-.04,1.244,1.244,0,0,1-.581-.341.592.592,0,0,1,.12-.941,10.393,10.393,0,0,0,2.493-1.9,8.986,8.986,0,0,0,1.672-2.443,14.391,14.391,0,0,0,.951-2.744,22.936,22.936,0,0,0,.491-3.144.124.124,0,0,0-.14-.14h-4.506a.761.761,0,1,1,0-1.522h4.606a.146.146,0,0,0,.16-.14q.04-1.5.06-4.045a.811.811,0,0,1,.23-.581.8.8,0,0,1,1.142,0,.811.811,0,0,1,.23.581q-.021,2.783-.08,4.025c-.014.107.033.16.14.16h4.786a1.127,1.127,0,0,1,.841.351,1.151,1.151,0,0,1,.341.831v9.692a1.11,1.11,0,0,0,.14.691A.885.885,0,0,0,239.637,194.695Z"/>
          <path d="M249,183.441a.631.631,0,0,1,.28-.42.637.637,0,0,1,.321-.08.669.669,0,0,1,.16.02.724.724,0,0,1,.43.32.679.679,0,0,1,.09.521,18.355,18.355,0,0,1-1.422,4.326.659.659,0,0,1-.42.36.947.947,0,0,1-.26.04.711.711,0,0,1-.32-.08.541.541,0,0,1-.34-.381.987.987,0,0,1-.02-.2.594.594,0,0,1,.08-.3A15.393,15.393,0,0,0,249,183.441Zm2.423-4.565a.735.735,0,0,1,.22-.541.723.723,0,0,1,.53-.22.693.693,0,0,1,.521.22.755.755,0,0,1,.21.541v5.567q0,1.7-.11,3.034a23.36,23.36,0,0,1-.441,2.894,11.389,11.389,0,0,1-1.061,2.954,11.512,11.512,0,0,1-1.852,2.573.675.675,0,0,1-.541.2.845.845,0,0,1-.771-.8.765.765,0,0,1,.21-.561,10.507,10.507,0,0,0,1.632-2.323,10.663,10.663,0,0,0,.951-2.664,20.8,20.8,0,0,0,.4-2.583q.1-1.181.1-2.723Zm2.263,5.367a.817.817,0,0,1-.04-.261.947.947,0,0,1,.04-.26.786.786,0,0,1,.36-.36.673.673,0,0,1,.521.01.712.712,0,0,1,.38.37,24.517,24.517,0,0,1,1.2,3.745.77.77,0,0,1-.07.581.853.853,0,0,1-.45.4.5.5,0,0,1-.22.06.563.563,0,0,1-.281-.08.5.5,0,0,1-.28-.4A22.747,22.747,0,0,0,253.683,184.242Zm3.544-4.946a.729.729,0,0,1,.21-.521.69.69,0,0,1,.521-.22.723.723,0,0,1,.531.22.711.711,0,0,1,.22.521v15.039a.711.711,0,0,1-.22.521.725.725,0,0,1-.531.22.692.692,0,0,1-.521-.22.729.729,0,0,1-.21-.521Zm2.283,4.786a.591.591,0,0,1-.08-.3.906.906,0,0,1,.02-.18.608.608,0,0,1,.32-.38.855.855,0,0,1,.3-.06,1.369,1.369,0,0,1,.22.02.683.683,0,0,1,.4.32,25.726,25.726,0,0,1,1.782,3.725,1.012,1.012,0,0,1,.04.28.848.848,0,0,1-.46.761.708.708,0,0,1-.28.06.751.751,0,0,1-.24-.04.6.6,0,0,1-.34-.381A23.85,23.85,0,0,0,259.51,184.082Zm3.785-5.286a.737.737,0,0,1,.22-.541.749.749,0,0,1,1.061,0,.737.737,0,0,1,.22.541v16.68a.746.746,0,0,1-.22.531.726.726,0,0,1-1.061,0,.746.746,0,0,1-.22-.531Z"/>
          <path d="M288.1,183.391a.781.781,0,0,1-.551,1.332h-6.828a.108.108,0,0,0-.08.05.081.081,0,0,0-.02.09,18.65,18.65,0,0,0,3.124,5.947,12.328,12.328,0,0,0,4.065,3.364.611.611,0,0,1,.36.47.718.718,0,0,1-.14.591,1.21,1.21,0,0,1-.621.42.914.914,0,0,1-.721-.08q-4.866-2.743-7.309-9.592c0-.013-.01-.02-.03-.02a.069.069,0,0,0-.05.02,14.287,14.287,0,0,1-7.369,9.632,1.015,1.015,0,0,1-.42.1.944.944,0,0,1-.26-.04,1.318,1.318,0,0,1-.6-.38.668.668,0,0,1-.15-.511.477.477,0,0,1,.291-.41,13.3,13.3,0,0,0,7.149-9.512c.026-.093-.007-.14-.1-.14h-6.628a.781.781,0,0,1,0-1.562h6.869a.157.157,0,0,0,.18-.14,43.483,43.483,0,0,0,.26-4.866.867.867,0,0,1,.26-.581.822.822,0,0,1,1.162,0,.805.805,0,0,1,.22.561,40.875,40.875,0,0,1-.28,4.886q-.021.14.12.14h7.549A.752.752,0,0,1,288.1,183.391Z"/>
          <path d="M310.208,189.248a.7.7,0,0,1,.51.21.7.7,0,0,1,0,1,.7.7,0,0,1-.51.21H302.8c-.094,0-.14.053-.14.16v3.845a2.018,2.018,0,0,1-.22,1.041,1.345,1.345,0,0,1-.761.541,12.179,12.179,0,0,1-2.983.24,1.052,1.052,0,0,1-.631-.21,1.277,1.277,0,0,1-.431-.531.475.475,0,0,1,.02-.48.447.447,0,0,1,.4-.22q1,.02,1.662.02.6,0,.9-.02a.756.756,0,0,0,.41-.11.382.382,0,0,0,.11-.311v-3.8q0-.16-.14-.16h-7.349a.663.663,0,0,1-.5-.21.726.726,0,0,1,0-1,.663.663,0,0,1,.5-.21H301a.124.124,0,0,0,.14-.14v-.641a.655.655,0,0,1,.2-.481.679.679,0,0,1,.5-.2.353.353,0,0,0,.16-.04,16.2,16.2,0,0,0,2.684-1.682c.026-.013.037-.03.03-.05a.046.046,0,0,0-.05-.03h-7.649a.622.622,0,0,1-.471-.2.7.7,0,0,1,0-.961.624.624,0,0,1,.471-.2H306.3a.183.183,0,0,0,.08-.02.663.663,0,0,1,.16-.02.558.558,0,0,1,.34.12l.26.2a.556.556,0,0,1,.22.4.458.458,0,0,1-.16.4,18.176,18.176,0,0,1-4.405,2.964.244.244,0,0,0-.14.22v.22a.124.124,0,0,0,.14.14ZM294.93,182.5c-.094,0-.14.053-.14.16v2.3a.681.681,0,0,1-.22.511.731.731,0,0,1-.521.21.717.717,0,0,1-.721-.721V182.34a1.125,1.125,0,0,1,.351-.841,1.152,1.152,0,0,1,.831-.34h1.8a.08.08,0,0,0,.08-.04.13.13,0,0,0,0-.1,17.562,17.562,0,0,0-1.221-1.882.515.515,0,0,1-.1-.46.489.489,0,0,1,.3-.361.863.863,0,0,1,.591-.07.907.907,0,0,1,.51.311,13.162,13.162,0,0,1,1.182,1.642.627.627,0,0,1,.05.521.725.725,0,0,1-.331.4.02.02,0,0,0,0,.04h3.945a.1.1,0,0,0,.09-.05.09.09,0,0,0,.01-.09,10.858,10.858,0,0,0-1.062-2.263.584.584,0,0,1-.06-.491.539.539,0,0,1,.341-.351.753.753,0,0,1,.3-.06,1.031,1.031,0,0,1,.28.04.833.833,0,0,1,.46.36,14.526,14.526,0,0,1,.961,1.762.682.682,0,0,1,0,.641.859.859,0,0,1-.481.46c0,.027.007.04.02.04h3.364a.269.269,0,0,0,.24-.12,20.31,20.31,0,0,0,1.682-2.423,1.171,1.171,0,0,1,.541-.441,1.137,1.137,0,0,1,.361-.06,1.1,1.1,0,0,1,.3.04.634.634,0,0,1,.32.961q-.741,1-1.522,1.922a.086.086,0,0,0,0,.08.064.064,0,0,0,.06.04h1.842a1.163,1.163,0,0,1,1.182,1.182v2.6a.719.719,0,0,1-.21.531.707.707,0,0,1-.521.21.741.741,0,0,1-.531-.21.7.7,0,0,1-.22-.531V182.66q0-.16-.14-.16Z"/>
          <path d="M322.672,187.526a.827.827,0,0,1-.11.551.718.718,0,0,1-.451.331l-1.782.581a.186.186,0,0,0-.14.2V195.8a.671.671,0,0,1-.21.491.7.7,0,0,1-1,0,.673.673,0,0,1-.21-.491v-6.167a.1.1,0,0,0-.14-.1q-.16.04-2.5.781a.77.77,0,0,1-.581-.07.694.694,0,0,1-.36-.451.739.739,0,0,1,.07-.57.7.7,0,0,1,.451-.351q1.761-.48,2.923-.841a.185.185,0,0,0,.14-.2v-4.265a.124.124,0,0,0-.14-.14h-1.562a.157.157,0,0,0-.18.14,20.96,20.96,0,0,1-.621,2.263.54.54,0,0,1-.351.32.531.531,0,0,1-.47-.06.765.765,0,0,1-.341-.42.573.573,0,0,1-.06-.26.814.814,0,0,1,.04-.26,25.392,25.392,0,0,0,1.1-5.527.568.568,0,0,1,.24-.44.688.688,0,0,1,.951.15.673.673,0,0,1,.13.511q-.1.8-.28,1.942-.021.16.12.16h1.281q.14,0,.14-.16v-3.3a.673.673,0,0,1,.21-.491.7.7,0,0,1,1,0,.671.671,0,0,1,.21.491v3.3a.141.141,0,0,0,.16.16h1.222a.729.729,0,0,1,.521.21.691.691,0,0,1,.22.521.723.723,0,0,1-.22.531.711.711,0,0,1-.521.22h-1.222q-.16,0-.16.14v3.885a.1.1,0,0,0,.05.09.089.089,0,0,0,.09.01l1.582-.48a.579.579,0,0,1,.491.06A.549.549,0,0,1,322.672,187.526Zm9.492-6.328a.018.018,0,0,1,.02-.02h.7a.835.835,0,0,1,.521.22.669.669,0,0,1,.18.46v.1q-.341,6.849-.721,9.782a8.819,8.819,0,0,1-1,3.714,1.939,1.939,0,0,1-1.422.781,8.955,8.955,0,0,1-.941.04q-.281,0-.611-.01a.837.837,0,0,1-.571-.24,1.273,1.273,0,0,1-.34-.571.579.579,0,0,1,.08-.47.411.411,0,0,1,.4-.19q.761.04,1.362.04a.948.948,0,0,0,.761-.36,7.384,7.384,0,0,0,.861-3.2q.36-2.663.661-8.51,0-.14-.16-.14h-.681a.173.173,0,0,0-.18.14,33.007,33.007,0,0,1-2.313,7.419,16.7,16.7,0,0,1-3.734,5.457.837.837,0,0,1-.581.21,1.177,1.177,0,0,1-.621-.21.568.568,0,0,1-.24-.44.516.516,0,0,1,.2-.46,15.134,15.134,0,0,0,3.654-5,30.394,30.394,0,0,0,2.333-6.979q.02-.14-.12-.14h-1.382a.185.185,0,0,0-.2.14,24.684,24.684,0,0,1-1.842,4.816,15.749,15.749,0,0,1-2.6,3.814.747.747,0,0,1-.551.22.862.862,0,0,1-.571-.2.559.559,0,0,1-.24-.431.549.549,0,0,1,.16-.45,13.545,13.545,0,0,0,2.523-3.384,22.17,22.17,0,0,0,1.822-4.385.162.162,0,0,0-.03-.1.105.105,0,0,0-.09-.04H325.2a.207.207,0,0,0-.2.12,19.784,19.784,0,0,1-1.822,3.184.659.659,0,0,1-.481.271.745.745,0,0,1-.541-.15.649.649,0,0,1-.28-.561.721.721,0,0,1,.14-.42,17.449,17.449,0,0,0,2.964-6.608.713.713,0,0,1,1.3-.25.625.625,0,0,1,.08.531,22.6,22.6,0,0,1-.7,2.323.1.1,0,0,0,.01.1.105.105,0,0,0,.09.04Z"/>
          <path d="M343.265,191.03a.6.6,0,0,1,.531.05.648.648,0,0,1,.311.45.854.854,0,0,1-.561.961q-.4.14-1.241.42t-1.332.44q-.491.16-1.151.38t-1.182.4a.684.684,0,0,1-.581-.06.661.661,0,0,1-.34-.461.991.991,0,0,1-.021-.2.922.922,0,0,1,.1-.42.893.893,0,0,1,.5-.38q.961-.3,1.842-.581a.186.186,0,0,0,.14-.2v-5.206q0-.16-.14-.16H338.66a.721.721,0,1,1,0-1.442h1.482a.124.124,0,0,0,.14-.14v-4.145q0-.16-.14-.16h-1.682a.7.7,0,0,1-.511-.21.7.7,0,0,1,0-1,.694.694,0,0,1,.511-.21h4.926a.693.693,0,0,1,.511.21.7.7,0,0,1,0,1,.7.7,0,0,1-.511.21h-1.5c-.094,0-.14.053-.14.16v4.145a.124.124,0,0,0,.14.14h1.2a.721.721,0,1,1,0,1.442h-1.2c-.094,0-.14.053-.14.16v4.766a.112.112,0,0,0,.04.08.09.09,0,0,0,.1.02Zm7.789,3.244a.124.124,0,0,0,.141.14h4.586a.662.662,0,0,1,.5.21.7.7,0,0,1,.2.5.662.662,0,0,1-.2.49.679.679,0,0,1-.5.2H343.966a.656.656,0,0,1-.481-.2.667.667,0,0,1-.2-.49.7.7,0,0,1,.2-.5.64.64,0,0,1,.481-.21h5.387c.105,0,.16-.047.16-.14v-2.5a.142.142,0,0,0-.16-.16h-3.8a.654.654,0,0,1-.481-.2.7.7,0,0,1,0-.981.656.656,0,0,1,.481-.2h3.8a.142.142,0,0,0,.16-.16v-2.1c0-.093-.055-.14-.16-.14h-3.064a1.127,1.127,0,0,1-.841-.35,1.152,1.152,0,0,1-.34-.831v-6.769a1.152,1.152,0,0,1,.34-.831,1.127,1.127,0,0,1,.841-.35h8.05a1.2,1.2,0,0,1,1.182,1.181v6.769a1.2,1.2,0,0,1-1.182,1.181h-3.145a.124.124,0,0,0-.141.14v2.1q0,.16.141.16h3.945a.654.654,0,0,1,.48.2.7.7,0,0,1,0,.981.652.652,0,0,1-.48.2h-3.945c-.094,0-.141.054-.141.16Zm-4.4-14.238q-.16,0-.16.14v2.283a.141.141,0,0,0,.16.16h2.823q.141,0,.141-.16v-2.283a.124.124,0,0,0-.141-.14Zm0,3.825a.142.142,0,0,0-.16.16v2.323q0,.14.16.14h2.823a.124.124,0,0,0,.141-.14v-2.323c0-.106-.047-.16-.141-.16Zm7.268-1.241q.141,0,.141-.16v-2.283a.124.124,0,0,0-.141-.14h-2.842a.124.124,0,0,0-.141.14v2.283q0,.16.141.16Zm0,3.865a.124.124,0,0,0,.141-.14v-2.323c0-.106-.047-.16-.141-.16h-2.842c-.094,0-.141.054-.141.16v2.323a.124.124,0,0,0,.141.14Z"/>
          <path d="M361.1,180.277a.7.7,0,0,1,0-1.4h5.787a.7.7,0,0,1,0,1.4H364.54a.147.147,0,0,0-.16.141,40.657,40.657,0,0,1-1.2,4.565.126.126,0,0,0,.01.11.1.1,0,0,0,.091.05h2.743a1.163,1.163,0,0,1,1.182,1.182v6.408a1.154,1.154,0,0,1-.341.831,1.128,1.128,0,0,1-.841.35h-2.783c-.107,0-.161.047-.161.141v.841a.658.658,0,0,1-.18.471.6.6,0,0,1-.45.19.629.629,0,0,1-.461-.19.639.639,0,0,1-.19-.471v-6.588a.046.046,0,0,0-.03-.05c-.02-.006-.036,0-.05.03-.214.36-.38.627-.5.8a.384.384,0,0,1-.42.2.448.448,0,0,1-.381-.3,1.769,1.769,0,0,1-.14-.681,1.612,1.612,0,0,1,.24-.841,20.183,20.183,0,0,0,2.423-7.048c.013-.093-.027-.141-.12-.141Zm4.606,12.255c.106,0,.16-.047.16-.14v-5.747a.142.142,0,0,0-.16-.16h-2.463a.142.142,0,0,0-.161.16v5.747q0,.14.161.14Zm12.5-6.328a.717.717,0,0,1,.721.721.73.73,0,0,1-.21.521.68.68,0,0,1-.511.22h-1.442c-.106,0-.16.047-.16.14v7.93a.718.718,0,0,1-.21.531.725.725,0,0,1-1.021,0,.722.722,0,0,1-.21-.531v-7.93c0-.093-.054-.14-.16-.14h-3.044a.146.146,0,0,0-.16.14,20.427,20.427,0,0,1-.591,4.546,9.469,9.469,0,0,1-1.832,3.685.619.619,0,0,1-.48.23.83.83,0,0,1-.541-.17.649.649,0,0,1-.26-.541.634.634,0,0,1,.14-.4q1.983-2.543,2.123-7.349c0-.093-.054-.14-.16-.14h-1.342a.753.753,0,0,1-.741-.741.678.678,0,0,1,.221-.511.728.728,0,0,1,.521-.21h1.361a.141.141,0,0,0,.16-.161v-5.586c0-.093-.053-.14-.16-.14h-.8a.721.721,0,1,1,0-1.442H377.8a.671.671,0,0,1,.49.21.726.726,0,0,1,0,1.021.672.672,0,0,1-.49.21h-1.042c-.106,0-.16.047-.16.14v5.586a.142.142,0,0,0,.16.161Zm-6.368-.161c0,.107.047.161.141.161h3.023a.142.142,0,0,0,.16-.161v-5.586c0-.093-.054-.14-.16-.14h-3.023a.124.124,0,0,0-.141.14Z"/>
          <path d="M397.609,194.875h1.741a.525.525,0,0,0,.521-.411,8.09,8.09,0,0,0,.18-1.852.447.447,0,0,1,.24-.38.548.548,0,0,1,.48-.02,1.228,1.228,0,0,1,.521.42.959.959,0,0,1,.181.561,4.654,4.654,0,0,1-.561,2.523,1.5,1.5,0,0,1-1.382.641h-2.143a2.2,2.2,0,0,1-1.592-.431,2.518,2.518,0,0,1-.411-1.692v-4.185a.142.142,0,0,0-.16-.161h-3.584a.157.157,0,0,0-.181.14,6.4,6.4,0,0,1-.55,1.742,7.2,7.2,0,0,1-1.151,1.642,8.121,8.121,0,0,1-2.062,1.572,17.3,17.3,0,0,1-3.084,1.312.911.911,0,0,1-.32.06,1.134,1.134,0,0,1-.36-.06,1.163,1.163,0,0,1-.562-.421.443.443,0,0,1-.14-.32.691.691,0,0,1,.02-.16.487.487,0,0,1,.341-.34q5.426-1.682,6.288-5.026a.186.186,0,0,0-.03-.09.1.1,0,0,0-.09-.05h-4.847a.66.66,0,0,1-.5-.21.726.726,0,0,1,0-1,.66.66,0,0,1,.5-.21h5.007c.106,0,.16-.047.16-.14v-1.6a.713.713,0,0,1,.22-.521.749.749,0,0,1,1.062,0,.713.713,0,0,1,.22.521v1.6q0,.14.161.14h4.045a1.195,1.195,0,0,1,1.181,1.181v4.586a.494.494,0,0,0,.642.641Zm-4-13.7q0-.14-.161-.14H390.6a.157.157,0,0,0-.181.14,9.89,9.89,0,0,1-.521,2.1,5.67,5.67,0,0,1-.991,1.642,5.461,5.461,0,0,1-1.682,1.292,12.028,12.028,0,0,1-2.533.911.8.8,0,0,1-.581-.06,1.153,1.153,0,0,1-.461-.42.454.454,0,0,1-.06-.431.429.429,0,0,1,.32-.291,10.92,10.92,0,0,0,2.213-.721,4.489,4.489,0,0,0,1.441-1.031,4.382,4.382,0,0,0,.831-1.312,7.393,7.393,0,0,0,.421-1.682q.019-.14-.12-.14h-3.545a.124.124,0,0,0-.14.14v1.382a.7.7,0,0,1-.221.53.775.775,0,0,1-1.062,0,.7.7,0,0,1-.22-.53v-1.742a1.2,1.2,0,0,1,1.182-1.182H391.2a.124.124,0,0,0,.14-.14v-.981a.721.721,0,0,1,.23-.541.775.775,0,0,1,1.082,0,.72.72,0,0,1,.229.541v.981a.124.124,0,0,0,.141.14h6.668a1.125,1.125,0,0,1,.841.351,1.151,1.151,0,0,1,.341.831v1.542a.787.787,0,0,1-.781.781.783.783,0,0,1-.561-.23.736.736,0,0,1-.24-.55v-1.182a.124.124,0,0,0-.141-.14h-3.9a.124.124,0,0,0-.141.14v3.444a.565.565,0,0,0,.15.47,1.418,1.418,0,0,0,.711.11h2.563a.619.619,0,0,0,.471-.16,1.157,1.157,0,0,0,.189-.661.5.5,0,0,1,.251-.381.487.487,0,0,1,.45-.02,1.021,1.021,0,0,1,.48.391.735.735,0,0,1,.12.571,2.1,2.1,0,0,1-.561,1.262,1.925,1.925,0,0,1-1.262.34h-2.883a2.807,2.807,0,0,1-1.753-.38,2.021,2.021,0,0,1-.43-1.522Z"/>
          <path d="M406.027,187.045a.664.664,0,0,1-.5-.21.7.7,0,0,1,0-.981.664.664,0,0,1,.5-.21h9.151a.641.641,0,0,1,.48.21.7.7,0,0,1,0,.981.641.641,0,0,1-.48.21Zm8.891-7.009a.661.661,0,1,1,0,1.322h-8.39a.661.661,0,1,1,0-1.322h3.283a.141.141,0,0,0,.16-.16v-1.321a.721.721,0,1,1,1.442,0v1.321a.141.141,0,0,0,.16.16Zm-7.009,16.25a.7.7,0,0,1-1,0,.688.688,0,0,1-.2-.491v-5.787a1.163,1.163,0,0,1,1.182-1.181h5.646a1.162,1.162,0,0,1,1.182,1.181v5.627a.741.741,0,0,1-1.481,0v-.22c0-.093-.04-.14-.12-.14H408.25a.124.124,0,0,0-.141.14v.38A.688.688,0,0,1,407.909,196.287Zm1.3-11.864a.657.657,0,0,1-.1.521.686.686,0,0,1-.44.3.586.586,0,0,1-.481-.09.661.661,0,0,1-.28-.41,16.353,16.353,0,0,0-.561-2.062.491.491,0,0,1,.03-.461.581.581,0,0,1,.37-.28.769.769,0,0,1,.531.07.717.717,0,0,1,.351.411A11.221,11.221,0,0,1,409.21,184.422Zm4.025,5.907q0-.16-.141-.16h-4.826a.142.142,0,0,0-.16.16v3.464a.142.142,0,0,0,.16.161H413.1c.094,0,.141-.053.141-.161Zm.08-5.447a.679.679,0,0,1-.351.38.724.724,0,0,1-.53.04.513.513,0,0,1-.351-.28.576.576,0,0,1-.03-.46q.42-1.1.741-2.183a.7.7,0,0,1,.34-.451.781.781,0,0,1,.561-.09.671.671,0,0,1,.421.34.644.644,0,0,1,.04.541Q413.656,184.1,413.316,184.883Zm9.432-5.927a.382.382,0,0,1,.12-.02.5.5,0,0,1,.28.08l.36.24a.769.769,0,0,1,.32.44.6.6,0,0,1,.04.22.753.753,0,0,1-.061.3q-1.522,3.485-2.522,5.427a.175.175,0,0,0,.04.22,6.853,6.853,0,0,1,2.482,4.866,2.983,2.983,0,0,1-1,2.663,3.069,3.069,0,0,1-1.342.46c-.267.027-.594.04-.98.04a.77.77,0,0,1-.591-.21,1.227,1.227,0,0,1-.351-.571.587.587,0,0,1,.09-.48.472.472,0,0,1,.411-.22,2.445,2.445,0,0,0,.3.02c.174,0,.347-.007.521-.02a2.12,2.12,0,0,0,.881-.22q.561-.341.562-1.622a5.513,5.513,0,0,0-1.782-3.785,1.908,1.908,0,0,1-.48-.881,3.014,3.014,0,0,1-.021-.34,1.63,1.63,0,0,1,.141-.661q.841-1.863,1.822-4.365a.1.1,0,0,0-.1-.14h-3.564a.141.141,0,0,0-.16.16v15.178a.731.731,0,0,1-.21.521.694.694,0,0,1-.521.22.724.724,0,0,1-.531-.22.713.713,0,0,1-.22-.521v-15.6a1.195,1.195,0,0,1,1.181-1.181h4.887Z"/>
        </g>
        <g>
          <path class="cls-1" d="M226.141,204.2a8.655,8.655,0,0,1-2.445-.355,9.278,9.278,0,0,1-4.013-2.369,8.6,8.6,0,0,1-.02-12.149,8.767,8.767,0,0,1,4.283-13.992,8.875,8.875,0,0,1,1.744-2.641,8.8,8.8,0,0,1,12.7-.018,8.91,8.91,0,0,1,1.745,2.631,9.2,9.2,0,0,1,6.743,8.857v.894a9.216,9.216,0,0,1,3.438,3.073,8.91,8.91,0,0,1,1.527,4.984,12.222,12.222,0,0,1-1.854,6.785,9.522,9.522,0,0,1-8.148,4.279h-2.423a9.974,9.974,0,0,1-6.9-2.453,20.6,20.6,0,0,1-1.87,1.243l-.236.134A8.953,8.953,0,0,1,226.141,204.2Z"/>
          <path class="cls-1" d="M264.045,204.237a8.653,8.653,0,0,1-4.576-1.291,8.879,8.879,0,0,1-1.512.129,8.7,8.7,0,0,1-3.675-.8,8.631,8.631,0,0,1-5.333,1.827l-.545-.017a8.83,8.83,0,0,1-7.743-11.84,8.693,8.693,0,0,1-.846-2.009l-.134-.553a9,9,0,0,1-.185-1.813,8.616,8.616,0,0,1,1.039-4.1,7.629,7.629,0,0,0,.631-1.958,8.691,8.691,0,0,1,2.375-4.389,8.763,8.763,0,0,1,12.153-6.573,8.874,8.874,0,0,1,4.61.022A8.754,8.754,0,0,1,272.8,178.8v16.68a8.769,8.769,0,0,1-8.75,8.761Z"/>
          <path class="cls-1" d="M271.513,203.716a8.936,8.936,0,0,1-2.474-.353,9.388,9.388,0,0,1-4.254-2.629l-.328-.376a8.633,8.633,0,0,1-1.913-6.4,8.478,8.478,0,0,1,1.846-4.492,8.783,8.783,0,0,1,6.667-14.307,8.886,8.886,0,0,1,2.068-3.245,8.822,8.822,0,0,1,12.475,0l.247.258a8.833,8.833,0,0,1,1.8,2.987,8.78,8.78,0,0,1,6.726,14.307,8.656,8.656,0,0,1,1.67,3.745,8.765,8.765,0,0,1-1.669,6.9l-.14.176a9.184,9.184,0,0,1-4.682,3.076,8.8,8.8,0,0,1-2.4.332,8.992,8.992,0,0,1-4.288-1.1l-.1-.056a21.289,21.289,0,0,1-3.336-2.326,22.562,22.562,0,0,1-3.787,2.486l-.393.192A8.958,8.958,0,0,1,271.513,203.716Z"/>
          <path class="cls-1" d="M298.694,204.5a9.021,9.021,0,0,1-5.326-1.733,9.294,9.294,0,0,1-3.037-3.738,8.619,8.619,0,0,1-.436-1.2,8.74,8.74,0,0,1-4.371-11,8.781,8.781,0,0,1-.2-1.863V182.34a9.094,9.094,0,0,1,2.018-5.749,8.541,8.541,0,0,1,4.662-5.536,8.86,8.86,0,0,1,5.72-.613l.03.007a8.712,8.712,0,0,1,3.179-.6,9.028,9.028,0,0,1,2.446.339l.37.114a8.823,8.823,0,0,1,1.169.486l.554-.208a9.125,9.125,0,0,1,5.356-.132l.386.119a8.564,8.564,0,0,1,5.438,5.453,8.879,8.879,0,0,1,.293,1.124,9.132,9.132,0,0,1,1.6,5.19v2.6a8.9,8.9,0,0,1-.2,1.881,8.719,8.719,0,0,1-8.141,11.846h-.319a9.089,9.089,0,0,1-.62,1.21,9.261,9.261,0,0,1-5.062,3.966l-.232.074A18.179,18.179,0,0,1,298.694,204.5Z"/>
          <path class="cls-1" d="M319.478,204.5a8.724,8.724,0,0,1-8.665-7.8,8.752,8.752,0,0,1-3.367-4.874,8.658,8.658,0,0,1-.089-4.12,8.634,8.634,0,0,1-.315-2.3,8.807,8.807,0,0,1,.456-2.806l.06-.17a17.559,17.559,0,0,0,.668-3.633,13.466,13.466,0,0,1,11.252-9.021,8.686,8.686,0,0,1,3.239.621,8.712,8.712,0,0,1,9.79,2.783h.378l.526.017a8.9,8.9,0,0,1,5.368,2.277l.579.582a8.68,8.68,0,0,1,2.227,5.8l-.01.5c-.24,4.821-.494,8.228-.777,10.413-.464,3.573-1.215,5.775-2.581,7.546a9.91,9.91,0,0,1-6.91,3.874,16.668,16.668,0,0,1-1.807.087q-.395,0-.859-.014a8.86,8.86,0,0,1-2.756-.529,8.806,8.806,0,0,1-1.4.113l-.265,0a9.243,9.243,0,0,1-1.159-.111A8.69,8.69,0,0,1,319.478,204.5Z"/>
          <path class="cls-1" d="M343.966,203.816a8.615,8.615,0,0,1-5.1-1.655q-.227.012-.454.012a8.724,8.724,0,0,1-8.538-6.991,8.889,8.889,0,0,1-.176-1.769,8.98,8.98,0,0,1,.956-4.019l.044-.078a8.8,8.8,0,0,1-.348-6.234,8.718,8.718,0,0,1,8.109-11.926H343.4a9.222,9.222,0,0,1,2.893-.46h8.05a9.2,9.2,0,0,1,9.182,9.181v6.769a9.261,9.261,0,0,1-.131,1.557,8.755,8.755,0,0,1,.43,2.718q0,.39-.034.775a8.759,8.759,0,0,1,.7,3.431,8.684,8.684,0,0,1-8.7,8.69Z"/>
          <path class="cls-1" d="M375.874,204.477a8.7,8.7,0,0,1-3.756-.845,8.642,8.642,0,0,1-2.959.629l-.306.005a8.776,8.776,0,0,1-4.117-1.015,8.689,8.689,0,0,1-2.288.3A8.65,8.65,0,0,1,353.8,194.9V193.5a8.451,8.451,0,0,1-.8-1.52,9.737,9.737,0,0,1-.722-3.676,9.64,9.64,0,0,1,1.171-4.591,8.706,8.706,0,0,1,7.649-12.84h5.787a8.857,8.857,0,0,0,2.523,0H377.8a8.716,8.716,0,0,1,8.7,8.721,8.734,8.734,0,0,1-.607,3.214,8.749,8.749,0,0,1-1.295,10.053v2.873a8.719,8.719,0,0,1-8.721,8.741Z"/>
          <path class="cls-1" d="M397.388,204.357a10.142,10.142,0,0,1-6.428-2.045,26.172,26.172,0,0,1-3.774,1.561,8.874,8.874,0,0,1-2.894.485,9.115,9.115,0,0,1-2.89-.471l-.127-.043a9.136,9.136,0,0,1-4.039-2.828,8.391,8.391,0,0,1-2.006-5.459,8.723,8.723,0,0,1,.237-2.015l.141-.513a8.518,8.518,0,0,1,.831-1.86,8.755,8.755,0,0,1-.215-1.52,8.523,8.523,0,0,1-.476-5.036,8.882,8.882,0,0,1-.238-2.051v-1.742a9.2,9.2,0,0,1,9.182-9.182h1.99a8.771,8.771,0,0,1,10.858,0h2.149a9.18,9.18,0,0,1,9.182,9.182v1.542a8.774,8.774,0,0,1-.365,2.517,8.681,8.681,0,0,1-.146,1.5,11.58,11.58,0,0,1-.455,1.757,8.967,8.967,0,0,1,1.566,5.059,12.438,12.438,0,0,1-1.819,6.83,9.4,9.4,0,0,1-8.123,4.334Z"/>
          <path class="cls-1" d="M407.409,204.5a8.7,8.7,0,0,1-8.7-8.7V191.05a8.713,8.713,0,0,1-.6-8.311,8.8,8.8,0,0,1-.238-2.042,8.656,8.656,0,0,1,6.819-8.467,8.732,8.732,0,0,1,10.8-.964,9.174,9.174,0,0,1,2.374-.311h4.428q.289-.02.579-.02a8.474,8.474,0,0,1,4.708,1.417l.37.247a8.815,8.815,0,0,1,3.463,4.535,8.569,8.569,0,0,1,.46,2.782,8.708,8.708,0,0,1-.709,3.456q-.363.831-.7,1.574a13.592,13.592,0,0,1,1.343,5.66v.124c0,5.491-2.88,8.21-4.6,9.342A10.6,10.6,0,0,1,424,201.5c-.08.091-.161.181-.245.269a8.669,8.669,0,0,1-6.32,2.71,8.848,8.848,0,0,0-3.455-.1,8.715,8.715,0,0,1-3.13-.577A8.715,8.715,0,0,1,407.409,204.5Z"/>
        </g>
        <g>
          <path class="cls-2" d="M239.637,194.695h2.1a.527.527,0,0,0,.521-.42,7.515,7.515,0,0,0,.18-1.742.441.441,0,0,1,.25-.38.49.49,0,0,1,.451-.02,1.216,1.216,0,0,1,.521.44.937.937,0,0,1,.18.541,4.428,4.428,0,0,1-.561,2.423,1.593,1.593,0,0,1-1.442.641h-2.423a2.153,2.153,0,0,1-1.632-.481,2.892,2.892,0,0,1-.431-1.862v-9.191c0-.093-.054-.14-.16-.14h-4.385c-.107,0-.161.047-.161.14a26.632,26.632,0,0,1-.541,3.484,16.7,16.7,0,0,1-1.031,3.063,10.108,10.108,0,0,1-1.8,2.733,11.694,11.694,0,0,1-2.693,2.153.913.913,0,0,1-.44.12.71.71,0,0,1-.22-.04,1.244,1.244,0,0,1-.581-.341.592.592,0,0,1,.12-.941,10.393,10.393,0,0,0,2.493-1.9,8.986,8.986,0,0,0,1.672-2.443,14.391,14.391,0,0,0,.951-2.744,22.936,22.936,0,0,0,.491-3.144.124.124,0,0,0-.14-.14h-4.506a.761.761,0,1,1,0-1.522h4.606a.146.146,0,0,0,.16-.14q.04-1.5.06-4.045a.811.811,0,0,1,.23-.581.8.8,0,0,1,1.142,0,.811.811,0,0,1,.23.581q-.021,2.783-.08,4.025c-.014.107.033.16.14.16h4.786a1.127,1.127,0,0,1,.841.351,1.151,1.151,0,0,1,.341.831v9.692a1.11,1.11,0,0,0,.14.691A.885.885,0,0,0,239.637,194.695Z"/>
          <path class="cls-2" d="M249,183.441a.631.631,0,0,1,.28-.42.637.637,0,0,1,.321-.08.669.669,0,0,1,.16.02.724.724,0,0,1,.43.32.679.679,0,0,1,.09.521,18.355,18.355,0,0,1-1.422,4.326.659.659,0,0,1-.42.36.947.947,0,0,1-.26.04.711.711,0,0,1-.32-.08.541.541,0,0,1-.34-.381.987.987,0,0,1-.02-.2.594.594,0,0,1,.08-.3A15.393,15.393,0,0,0,249,183.441Zm2.423-4.565a.735.735,0,0,1,.22-.541.723.723,0,0,1,.53-.22.693.693,0,0,1,.521.22.755.755,0,0,1,.21.541v5.567q0,1.7-.11,3.034a23.36,23.36,0,0,1-.441,2.894,11.389,11.389,0,0,1-1.061,2.954,11.512,11.512,0,0,1-1.852,2.573.675.675,0,0,1-.541.2.845.845,0,0,1-.771-.8.765.765,0,0,1,.21-.561,10.507,10.507,0,0,0,1.632-2.323,10.663,10.663,0,0,0,.951-2.664,20.8,20.8,0,0,0,.4-2.583q.1-1.181.1-2.723Zm2.263,5.367a.817.817,0,0,1-.04-.261.947.947,0,0,1,.04-.26.786.786,0,0,1,.36-.36.673.673,0,0,1,.521.01.712.712,0,0,1,.38.37,24.517,24.517,0,0,1,1.2,3.745.77.77,0,0,1-.07.581.853.853,0,0,1-.45.4.5.5,0,0,1-.22.06.563.563,0,0,1-.281-.08.5.5,0,0,1-.28-.4A22.747,22.747,0,0,0,253.683,184.242Zm3.544-4.946a.729.729,0,0,1,.21-.521.69.69,0,0,1,.521-.22.723.723,0,0,1,.531.22.711.711,0,0,1,.22.521v15.039a.711.711,0,0,1-.22.521.725.725,0,0,1-.531.22.692.692,0,0,1-.521-.22.729.729,0,0,1-.21-.521Zm2.283,4.786a.591.591,0,0,1-.08-.3.906.906,0,0,1,.02-.18.608.608,0,0,1,.32-.38.855.855,0,0,1,.3-.06,1.369,1.369,0,0,1,.22.02.683.683,0,0,1,.4.32,25.726,25.726,0,0,1,1.782,3.725,1.012,1.012,0,0,1,.04.28.848.848,0,0,1-.46.761.708.708,0,0,1-.28.06.751.751,0,0,1-.24-.04.6.6,0,0,1-.34-.381A23.85,23.85,0,0,0,259.51,184.082Zm3.785-5.286a.737.737,0,0,1,.22-.541.749.749,0,0,1,1.061,0,.737.737,0,0,1,.22.541v16.68a.746.746,0,0,1-.22.531.726.726,0,0,1-1.061,0,.746.746,0,0,1-.22-.531Z"/>
          <path class="cls-2" d="M288.1,183.391a.781.781,0,0,1-.551,1.332h-6.828a.108.108,0,0,0-.08.05.081.081,0,0,0-.02.09,18.65,18.65,0,0,0,3.124,5.947,12.328,12.328,0,0,0,4.065,3.364.611.611,0,0,1,.36.47.718.718,0,0,1-.14.591,1.21,1.21,0,0,1-.621.42.914.914,0,0,1-.721-.08q-4.866-2.743-7.309-9.592c0-.013-.01-.02-.03-.02a.069.069,0,0,0-.05.02,14.287,14.287,0,0,1-7.369,9.632,1.015,1.015,0,0,1-.42.1.944.944,0,0,1-.26-.04,1.318,1.318,0,0,1-.6-.38.668.668,0,0,1-.15-.511.477.477,0,0,1,.291-.41,13.3,13.3,0,0,0,7.149-9.512c.026-.093-.007-.14-.1-.14h-6.628a.781.781,0,0,1,0-1.562h6.869a.157.157,0,0,0,.18-.14,43.483,43.483,0,0,0,.26-4.866.867.867,0,0,1,.26-.581.822.822,0,0,1,1.162,0,.805.805,0,0,1,.22.561,40.875,40.875,0,0,1-.28,4.886q-.021.14.12.14h7.549A.752.752,0,0,1,288.1,183.391Z"/>
          <path class="cls-2" d="M310.208,189.248a.7.7,0,0,1,.51.21.7.7,0,0,1,0,1,.7.7,0,0,1-.51.21H302.8c-.094,0-.14.053-.14.16v3.845a2.018,2.018,0,0,1-.22,1.041,1.345,1.345,0,0,1-.761.541,12.179,12.179,0,0,1-2.983.24,1.052,1.052,0,0,1-.631-.21,1.277,1.277,0,0,1-.431-.531.475.475,0,0,1,.02-.48.447.447,0,0,1,.4-.22q1,.02,1.662.02.6,0,.9-.02a.756.756,0,0,0,.41-.11.382.382,0,0,0,.11-.311v-3.8q0-.16-.14-.16h-7.349a.663.663,0,0,1-.5-.21.726.726,0,0,1,0-1,.663.663,0,0,1,.5-.21H301a.124.124,0,0,0,.14-.14v-.641a.655.655,0,0,1,.2-.481.679.679,0,0,1,.5-.2.353.353,0,0,0,.16-.04,16.2,16.2,0,0,0,2.684-1.682c.026-.013.037-.03.03-.05a.046.046,0,0,0-.05-.03h-7.649a.622.622,0,0,1-.471-.2.7.7,0,0,1,0-.961.624.624,0,0,1,.471-.2H306.3a.183.183,0,0,0,.08-.02.663.663,0,0,1,.16-.02.558.558,0,0,1,.34.12l.26.2a.556.556,0,0,1,.22.4.458.458,0,0,1-.16.4,18.176,18.176,0,0,1-4.405,2.964.244.244,0,0,0-.14.22v.22a.124.124,0,0,0,.14.14ZM294.93,182.5c-.094,0-.14.053-.14.16v2.3a.681.681,0,0,1-.22.511.731.731,0,0,1-.521.21.717.717,0,0,1-.721-.721V182.34a1.125,1.125,0,0,1,.351-.841,1.152,1.152,0,0,1,.831-.34h1.8a.08.08,0,0,0,.08-.04.13.13,0,0,0,0-.1,17.562,17.562,0,0,0-1.221-1.882.515.515,0,0,1-.1-.46.489.489,0,0,1,.3-.361.863.863,0,0,1,.591-.07.907.907,0,0,1,.51.311,13.162,13.162,0,0,1,1.182,1.642.627.627,0,0,1,.05.521.725.725,0,0,1-.331.4.02.02,0,0,0,0,.04h3.945a.1.1,0,0,0,.09-.05.09.09,0,0,0,.01-.09,10.858,10.858,0,0,0-1.062-2.263.584.584,0,0,1-.06-.491.539.539,0,0,1,.341-.351.753.753,0,0,1,.3-.06,1.031,1.031,0,0,1,.28.04.833.833,0,0,1,.46.36,14.526,14.526,0,0,1,.961,1.762.682.682,0,0,1,0,.641.859.859,0,0,1-.481.46c0,.027.007.04.02.04h3.364a.269.269,0,0,0,.24-.12,20.31,20.31,0,0,0,1.682-2.423,1.171,1.171,0,0,1,.541-.441,1.137,1.137,0,0,1,.361-.06,1.1,1.1,0,0,1,.3.04.634.634,0,0,1,.32.961q-.741,1-1.522,1.922a.086.086,0,0,0,0,.08.064.064,0,0,0,.06.04h1.842a1.163,1.163,0,0,1,1.182,1.182v2.6a.719.719,0,0,1-.21.531.707.707,0,0,1-.521.21.741.741,0,0,1-.531-.21.7.7,0,0,1-.22-.531V182.66q0-.16-.14-.16Z"/>
          <path class="cls-2" d="M322.672,187.526a.827.827,0,0,1-.11.551.718.718,0,0,1-.451.331l-1.782.581a.186.186,0,0,0-.14.2V195.8a.671.671,0,0,1-.21.491.7.7,0,0,1-1,0,.673.673,0,0,1-.21-.491v-6.167a.1.1,0,0,0-.14-.1q-.16.04-2.5.781a.77.77,0,0,1-.581-.07.694.694,0,0,1-.36-.451.739.739,0,0,1,.07-.57.7.7,0,0,1,.451-.351q1.761-.48,2.923-.841a.185.185,0,0,0,.14-.2v-4.265a.124.124,0,0,0-.14-.14h-1.562a.157.157,0,0,0-.18.14,20.96,20.96,0,0,1-.621,2.263.54.54,0,0,1-.351.32.531.531,0,0,1-.47-.06.765.765,0,0,1-.341-.42.573.573,0,0,1-.06-.26.814.814,0,0,1,.04-.26,25.392,25.392,0,0,0,1.1-5.527.568.568,0,0,1,.24-.44.688.688,0,0,1,.951.15.673.673,0,0,1,.13.511q-.1.8-.28,1.942-.021.16.12.16h1.281q.14,0,.14-.16v-3.3a.673.673,0,0,1,.21-.491.7.7,0,0,1,1,0,.671.671,0,0,1,.21.491v3.3a.141.141,0,0,0,.16.16h1.222a.729.729,0,0,1,.521.21.691.691,0,0,1,.22.521.723.723,0,0,1-.22.531.711.711,0,0,1-.521.22h-1.222q-.16,0-.16.14v3.885a.1.1,0,0,0,.05.09.089.089,0,0,0,.09.01l1.582-.48a.579.579,0,0,1,.491.06A.549.549,0,0,1,322.672,187.526Zm9.492-6.328a.018.018,0,0,1,.02-.02h.7a.835.835,0,0,1,.521.22.669.669,0,0,1,.18.46v.1q-.341,6.849-.721,9.782a8.819,8.819,0,0,1-1,3.714,1.939,1.939,0,0,1-1.422.781,8.955,8.955,0,0,1-.941.04q-.281,0-.611-.01a.837.837,0,0,1-.571-.24,1.273,1.273,0,0,1-.34-.571.579.579,0,0,1,.08-.47.411.411,0,0,1,.4-.19q.761.04,1.362.04a.948.948,0,0,0,.761-.36,7.384,7.384,0,0,0,.861-3.2q.36-2.663.661-8.51,0-.14-.16-.14h-.681a.173.173,0,0,0-.18.14,33.007,33.007,0,0,1-2.313,7.419,16.7,16.7,0,0,1-3.734,5.457.837.837,0,0,1-.581.21,1.177,1.177,0,0,1-.621-.21.568.568,0,0,1-.24-.44.516.516,0,0,1,.2-.46,15.134,15.134,0,0,0,3.654-5,30.394,30.394,0,0,0,2.333-6.979q.02-.14-.12-.14h-1.382a.185.185,0,0,0-.2.14,24.684,24.684,0,0,1-1.842,4.816,15.749,15.749,0,0,1-2.6,3.814.747.747,0,0,1-.551.22.862.862,0,0,1-.571-.2.559.559,0,0,1-.24-.431.549.549,0,0,1,.16-.45,13.545,13.545,0,0,0,2.523-3.384,22.17,22.17,0,0,0,1.822-4.385.162.162,0,0,0-.03-.1.105.105,0,0,0-.09-.04H325.2a.207.207,0,0,0-.2.12,19.784,19.784,0,0,1-1.822,3.184.659.659,0,0,1-.481.271.745.745,0,0,1-.541-.15.649.649,0,0,1-.28-.561.721.721,0,0,1,.14-.42,17.449,17.449,0,0,0,2.964-6.608.713.713,0,0,1,1.3-.25.625.625,0,0,1,.08.531,22.6,22.6,0,0,1-.7,2.323.1.1,0,0,0,.01.1.105.105,0,0,0,.09.04Z"/>
          <path class="cls-2" d="M343.265,191.03a.6.6,0,0,1,.531.05.648.648,0,0,1,.311.45.854.854,0,0,1-.561.961q-.4.14-1.241.42t-1.332.44q-.491.16-1.151.38t-1.182.4a.684.684,0,0,1-.581-.06.661.661,0,0,1-.34-.461.991.991,0,0,1-.021-.2.922.922,0,0,1,.1-.42.893.893,0,0,1,.5-.38q.961-.3,1.842-.581a.186.186,0,0,0,.14-.2v-5.206q0-.16-.14-.16H338.66a.721.721,0,1,1,0-1.442h1.482a.124.124,0,0,0,.14-.14v-4.145q0-.16-.14-.16h-1.682a.7.7,0,0,1-.511-.21.7.7,0,0,1,0-1,.694.694,0,0,1,.511-.21h4.926a.693.693,0,0,1,.511.21.7.7,0,0,1,0,1,.7.7,0,0,1-.511.21h-1.5c-.094,0-.14.053-.14.16v4.145a.124.124,0,0,0,.14.14h1.2a.721.721,0,1,1,0,1.442h-1.2c-.094,0-.14.053-.14.16v4.766a.112.112,0,0,0,.04.08.09.09,0,0,0,.1.02Zm7.789,3.244a.124.124,0,0,0,.141.14h4.586a.662.662,0,0,1,.5.21.7.7,0,0,1,.2.5.662.662,0,0,1-.2.49.679.679,0,0,1-.5.2H343.966a.656.656,0,0,1-.481-.2.667.667,0,0,1-.2-.49.7.7,0,0,1,.2-.5.64.64,0,0,1,.481-.21h5.387c.105,0,.16-.047.16-.14v-2.5a.142.142,0,0,0-.16-.16h-3.8a.654.654,0,0,1-.481-.2.7.7,0,0,1,0-.981.656.656,0,0,1,.481-.2h3.8a.142.142,0,0,0,.16-.16v-2.1c0-.093-.055-.14-.16-.14h-3.064a1.127,1.127,0,0,1-.841-.35,1.152,1.152,0,0,1-.34-.831v-6.769a1.152,1.152,0,0,1,.34-.831,1.127,1.127,0,0,1,.841-.35h8.05a1.2,1.2,0,0,1,1.182,1.181v6.769a1.2,1.2,0,0,1-1.182,1.181h-3.145a.124.124,0,0,0-.141.14v2.1q0,.16.141.16h3.945a.654.654,0,0,1,.48.2.7.7,0,0,1,0,.981.652.652,0,0,1-.48.2h-3.945c-.094,0-.141.054-.141.16Zm-4.4-14.238q-.16,0-.16.14v2.283a.141.141,0,0,0,.16.16h2.823q.141,0,.141-.16v-2.283a.124.124,0,0,0-.141-.14Zm0,3.825a.142.142,0,0,0-.16.16v2.323q0,.14.16.14h2.823a.124.124,0,0,0,.141-.14v-2.323c0-.106-.047-.16-.141-.16Zm7.268-1.241q.141,0,.141-.16v-2.283a.124.124,0,0,0-.141-.14h-2.842a.124.124,0,0,0-.141.14v2.283q0,.16.141.16Zm0,3.865a.124.124,0,0,0,.141-.14v-2.323c0-.106-.047-.16-.141-.16h-2.842c-.094,0-.141.054-.141.16v2.323a.124.124,0,0,0,.141.14Z"/>
          <path class="cls-2" d="M361.1,180.277a.7.7,0,0,1,0-1.4h5.787a.7.7,0,0,1,0,1.4H364.54a.147.147,0,0,0-.16.141,40.657,40.657,0,0,1-1.2,4.565.126.126,0,0,0,.01.11.1.1,0,0,0,.091.05h2.743a1.163,1.163,0,0,1,1.182,1.182v6.408a1.154,1.154,0,0,1-.341.831,1.128,1.128,0,0,1-.841.35h-2.783c-.107,0-.161.047-.161.141v.841a.658.658,0,0,1-.18.471.6.6,0,0,1-.45.19.629.629,0,0,1-.461-.19.639.639,0,0,1-.19-.471v-6.588a.046.046,0,0,0-.03-.05c-.02-.006-.036,0-.05.03-.214.36-.38.627-.5.8a.384.384,0,0,1-.42.2.448.448,0,0,1-.381-.3,1.769,1.769,0,0,1-.14-.681,1.612,1.612,0,0,1,.24-.841,20.183,20.183,0,0,0,2.423-7.048c.013-.093-.027-.141-.12-.141Zm4.606,12.255c.106,0,.16-.047.16-.14v-5.747a.142.142,0,0,0-.16-.16h-2.463a.142.142,0,0,0-.161.16v5.747q0,.14.161.14Zm12.5-6.328a.717.717,0,0,1,.721.721.73.73,0,0,1-.21.521.68.68,0,0,1-.511.22h-1.442c-.106,0-.16.047-.16.14v7.93a.718.718,0,0,1-.21.531.725.725,0,0,1-1.021,0,.722.722,0,0,1-.21-.531v-7.93c0-.093-.054-.14-.16-.14h-3.044a.146.146,0,0,0-.16.14,20.427,20.427,0,0,1-.591,4.546,9.469,9.469,0,0,1-1.832,3.685.619.619,0,0,1-.48.23.83.83,0,0,1-.541-.17.649.649,0,0,1-.26-.541.634.634,0,0,1,.14-.4q1.983-2.543,2.123-7.349c0-.093-.054-.14-.16-.14h-1.342a.753.753,0,0,1-.741-.741.678.678,0,0,1,.221-.511.728.728,0,0,1,.521-.21h1.361a.141.141,0,0,0,.16-.161v-5.586c0-.093-.053-.14-.16-.14h-.8a.721.721,0,1,1,0-1.442H377.8a.671.671,0,0,1,.49.21.726.726,0,0,1,0,1.021.672.672,0,0,1-.49.21h-1.042c-.106,0-.16.047-.16.14v5.586a.142.142,0,0,0,.16.161Zm-6.368-.161c0,.107.047.161.141.161h3.023a.142.142,0,0,0,.16-.161v-5.586c0-.093-.054-.14-.16-.14h-3.023a.124.124,0,0,0-.141.14Z"/>
          <path class="cls-2" d="M397.609,194.875h1.741a.525.525,0,0,0,.521-.411,8.09,8.09,0,0,0,.18-1.852.447.447,0,0,1,.24-.38.548.548,0,0,1,.48-.02,1.228,1.228,0,0,1,.521.42.959.959,0,0,1,.181.561,4.654,4.654,0,0,1-.561,2.523,1.5,1.5,0,0,1-1.382.641h-2.143a2.2,2.2,0,0,1-1.592-.431,2.518,2.518,0,0,1-.411-1.692v-4.185a.142.142,0,0,0-.16-.161h-3.584a.157.157,0,0,0-.181.14,6.4,6.4,0,0,1-.55,1.742,7.2,7.2,0,0,1-1.151,1.642,8.121,8.121,0,0,1-2.062,1.572,17.3,17.3,0,0,1-3.084,1.312.911.911,0,0,1-.32.06,1.134,1.134,0,0,1-.36-.06,1.163,1.163,0,0,1-.562-.421.443.443,0,0,1-.14-.32.691.691,0,0,1,.02-.16.487.487,0,0,1,.341-.34q5.426-1.682,6.288-5.026a.186.186,0,0,0-.03-.09.1.1,0,0,0-.09-.05h-4.847a.66.66,0,0,1-.5-.21.726.726,0,0,1,0-1,.66.66,0,0,1,.5-.21h5.007c.106,0,.16-.047.16-.14v-1.6a.713.713,0,0,1,.22-.521.749.749,0,0,1,1.062,0,.713.713,0,0,1,.22.521v1.6q0,.14.161.14h4.045a1.195,1.195,0,0,1,1.181,1.181v4.586a.494.494,0,0,0,.642.641Zm-4-13.7q0-.14-.161-.14H390.6a.157.157,0,0,0-.181.14,9.89,9.89,0,0,1-.521,2.1,5.67,5.67,0,0,1-.991,1.642,5.461,5.461,0,0,1-1.682,1.292,12.028,12.028,0,0,1-2.533.911.8.8,0,0,1-.581-.06,1.153,1.153,0,0,1-.461-.42.454.454,0,0,1-.06-.431.429.429,0,0,1,.32-.291,10.92,10.92,0,0,0,2.213-.721,4.489,4.489,0,0,0,1.441-1.031,4.382,4.382,0,0,0,.831-1.312,7.393,7.393,0,0,0,.421-1.682q.019-.14-.12-.14h-3.545a.124.124,0,0,0-.14.14v1.382a.7.7,0,0,1-.221.53.775.775,0,0,1-1.062,0,.7.7,0,0,1-.22-.53v-1.742a1.2,1.2,0,0,1,1.182-1.182H391.2a.124.124,0,0,0,.14-.14v-.981a.721.721,0,0,1,.23-.541.775.775,0,0,1,1.082,0,.72.72,0,0,1,.229.541v.981a.124.124,0,0,0,.141.14h6.668a1.125,1.125,0,0,1,.841.351,1.151,1.151,0,0,1,.341.831v1.542a.787.787,0,0,1-.781.781.783.783,0,0,1-.561-.23.736.736,0,0,1-.24-.55v-1.182a.124.124,0,0,0-.141-.14h-3.9a.124.124,0,0,0-.141.14v3.444a.565.565,0,0,0,.15.47,1.418,1.418,0,0,0,.711.11h2.563a.619.619,0,0,0,.471-.16,1.157,1.157,0,0,0,.189-.661.5.5,0,0,1,.251-.381.487.487,0,0,1,.45-.02,1.021,1.021,0,0,1,.48.391.735.735,0,0,1,.12.571,2.1,2.1,0,0,1-.561,1.262,1.925,1.925,0,0,1-1.262.34h-2.883a2.807,2.807,0,0,1-1.753-.38,2.021,2.021,0,0,1-.43-1.522Z"/>
          <path class="cls-2" d="M406.027,187.045a.664.664,0,0,1-.5-.21.7.7,0,0,1,0-.981.664.664,0,0,1,.5-.21h9.151a.641.641,0,0,1,.48.21.7.7,0,0,1,0,.981.641.641,0,0,1-.48.21Zm8.891-7.009a.661.661,0,1,1,0,1.322h-8.39a.661.661,0,1,1,0-1.322h3.283a.141.141,0,0,0,.16-.16v-1.321a.721.721,0,1,1,1.442,0v1.321a.141.141,0,0,0,.16.16Zm-7.009,16.25a.7.7,0,0,1-1,0,.688.688,0,0,1-.2-.491v-5.787a1.163,1.163,0,0,1,1.182-1.181h5.646a1.162,1.162,0,0,1,1.182,1.181v5.627a.741.741,0,0,1-1.481,0v-.22c0-.093-.04-.14-.12-.14H408.25a.124.124,0,0,0-.141.14v.38A.688.688,0,0,1,407.909,196.287Zm1.3-11.864a.657.657,0,0,1-.1.521.686.686,0,0,1-.44.3.586.586,0,0,1-.481-.09.661.661,0,0,1-.28-.41,16.353,16.353,0,0,0-.561-2.062.491.491,0,0,1,.03-.461.581.581,0,0,1,.37-.28.769.769,0,0,1,.531.07.717.717,0,0,1,.351.411A11.221,11.221,0,0,1,409.21,184.422Zm4.025,5.907q0-.16-.141-.16h-4.826a.142.142,0,0,0-.16.16v3.464a.142.142,0,0,0,.16.161H413.1c.094,0,.141-.053.141-.161Zm.08-5.447a.679.679,0,0,1-.351.38.724.724,0,0,1-.53.04.513.513,0,0,1-.351-.28.576.576,0,0,1-.03-.46q.42-1.1.741-2.183a.7.7,0,0,1,.34-.451.781.781,0,0,1,.561-.09.671.671,0,0,1,.421.34.644.644,0,0,1,.04.541Q413.656,184.1,413.316,184.883Zm9.432-5.927a.382.382,0,0,1,.12-.02.5.5,0,0,1,.28.08l.36.24a.769.769,0,0,1,.32.44.6.6,0,0,1,.04.22.753.753,0,0,1-.061.3q-1.522,3.485-2.522,5.427a.175.175,0,0,0,.04.22,6.853,6.853,0,0,1,2.482,4.866,2.983,2.983,0,0,1-1,2.663,3.069,3.069,0,0,1-1.342.46c-.267.027-.594.04-.98.04a.77.77,0,0,1-.591-.21,1.227,1.227,0,0,1-.351-.571.587.587,0,0,1,.09-.48.472.472,0,0,1,.411-.22,2.445,2.445,0,0,0,.3.02c.174,0,.347-.007.521-.02a2.12,2.12,0,0,0,.881-.22q.561-.341.562-1.622a5.513,5.513,0,0,0-1.782-3.785,1.908,1.908,0,0,1-.48-.881,3.014,3.014,0,0,1-.021-.34,1.63,1.63,0,0,1,.141-.661q.841-1.863,1.822-4.365a.1.1,0,0,0-.1-.14h-3.564a.141.141,0,0,0-.16.16v15.178a.731.731,0,0,1-.21.521.694.694,0,0,1-.521.22.724.724,0,0,1-.531-.22.713.713,0,0,1-.22-.521v-15.6a1.195,1.195,0,0,1,1.181-1.181h4.887Z"/>
        </g>
      </g>
    </g>
  </g>
</svg>
