<svg xmlns="http://www.w3.org/2000/svg" width="137.686mm" height="53.358mm" viewBox="0 0 390.29 151.25"><defs><style>.cls-1{fill:#f5ab4a;}.cls-2{fill:#5d4b21;}.cls-3{fill:#fff;stroke:#231909;stroke-miterlimit:10;stroke-width:4px;}.cls-4{fill:#231909;}</style></defs><title>F</title><g id="レイヤー_2" data-name="レイヤー 2"><g id="レイヤー_3" data-name="レイヤー 3"><path class="cls-1" d="M362.926,147.25V78.75H289.837v68.5H266.9V77.75H24.431C16.3,77.75,4,68.278,4,54c0-8.5,3.653-19.729,21.056-24.908l.529-.16a93.2,93.2,0,0,1,11.491-1.977V15c0-4.484,4.169-9.25,11.895-9.25,4.613,0,9.975,3.895,9.975,8.917V24H77.407V13.25C77.407,7.631,81.741,4,88.449,4c4.164,0,10.188,3.383,10.188,9.5V26.033c33.721.277,270.112,2.217,273.837,2.217,4.96,0,8.42,5.718,10.041,9.126A40.076,40.076,0,0,1,386.29,54v93.25Z"/><path class="cls-2" d="M88.449,8c1.92,0,6.188,1.75,6.188,5.5V30s273.783,2.25,277.837,2.25,9.816,11,9.816,21.75v89.25H366.926V74.75H285.837v68.5H270.9V73.75H24.431C18.243,73.75,8,66,8,54,8,37.5,23.578,33.75,26.779,32.75s14.3-2.25,14.3-2.25V15c0-2.5,2.774-5.25,7.895-5.25,2.561,0,5.975,2.267,5.975,4.917V28H81.407V13.25C81.407,9,85.461,8,88.449,8m0-8C79.592,0,73.407,5.449,73.407,13.25V20H62.946V14.667a12.45,12.45,0,0,0-5.165-9.806,14.866,14.866,0,0,0-8.81-3.111C38.647,1.75,33.076,8.577,33.076,15v8.455a67.468,67.468,0,0,0-8.683,1.659c-.134.042-.294.089-.478.144a39.326,39.326,0,0,0-13.312,6.5A27.26,27.26,0,0,0,0,54C0,69.628,13.133,81.75,24.431,81.75H262.9v69.5h30.938V82.75h65.089v68.5H390.29V54c0-12.423-6.778-29.75-17.816-29.75-3.588,0-224.789-1.815-269.837-2.185V13.5A13,13,0,0,0,96.822,2.769,15.368,15.368,0,0,0,88.449,0Z"/><ellipse class="cls-3" cx="81.3" cy="52.148" rx="14.617" ry="14.102"/><ellipse class="cls-4" cx="81.165" cy="51.75" rx="2.901" ry="2.744"/><ellipse class="cls-3" cx="36.488" cy="52.148" rx="14.617" ry="14.102"/><ellipse class="cls-4" cx="36.353" cy="51.75" rx="2.901" ry="2.744"/></g></g></svg>