
<svg xmlns="http://www.w3.org/2000/svg" version="1.1" xmlns:xlink="http://www.w3.org/1999/xlink" preserveAspectRatio="none" x="0px" y="0px" width="256px" height="256px" viewBox="0 0 256 256">
<defs>
<g id="Layer1_0_FILL">
<path fill="#FEFEF4" stroke="none" d="
M 560.5 283.5
L 560.5 27.5 304.5 27.5 304.5 283.5 560.5 283.5 Z"/>
</g>

<g id="______2_0_Layer0_0_MEMBER_0_FILL">
<path fill="#E0E0D8" stroke="none" d="
M 651.1 329.45
Q 661.4 308.8 657.85 285.85 654.25 262.45 637.5 245.7 627.2 235.4 613.9 229.9 600.65 224.4 586.1 224.4 571.55 224.4 558.3 229.9 545 235.4 534.75 245.7 524.45 255.95 518.95 269.25 513.45 282.5 513.45 297.05 513.45 311.6 518.95 324.85 524.45 338.15 534.75 348.45 545.05 358.75 558.3 364.2 571.55 369.7 586.1 369.7 603.25 369.7 618.55 362.1
L 602.4 345.95
Q 594.45 348.55 586.1 348.55 575.8 348.55 566.4 344.65 556.95 340.75 549.7 333.5 542.4 326.2 538.5 316.8 534.6 307.35 534.6 297.05 534.6 286.75 538.5 277.35 542.4 267.9 549.7 260.65 556.95 253.35 566.4 249.45 575.8 245.55 586.1 245.55 596.4 245.55 605.85 249.45 615.25 253.35 622.55 260.65 633.05 271.15 636.3 285.6 639.45 299.65 634.95 313.3
L 651.1 329.45 Z"/>
</g>

<g id="______2_0_Layer0_0_MEMBER_1_FILL">
<path fill="#E0E0D8" stroke="none" d="
M 602.1 298.1
L 587.15 313.05 641.25 367.15 656.2 352.2 602.1 298.1 Z"/>
</g>
</defs>

<g transform="matrix( 1, 0, 0, 1, -304,-27) ">
<use xlink:href="#Layer1_0_FILL"/>
</g>

<g transform="matrix( 0.99151611328125, -0.129852294921875, 0.129852294921875, 0.99151611328125, 128.1,128.05) ">
<g transform="matrix( 0.4218597412109375, 0, 0, 0.4218597412109375, -247.25,-125.3) ">
<use xlink:href="#______2_0_Layer0_0_MEMBER_0_FILL"/>
</g>

<g transform="matrix( 0.4218597412109375, 0, 0, 0.4218597412109375, -247.25,-125.3) ">
<use xlink:href="#______2_0_Layer0_0_MEMBER_1_FILL"/>
</g>
</g>
</svg>
