<svg xmlns="http://www.w3.org/2000/svg" width="170.523" height="81.271" viewBox="0 0 170.523 81.271">
  <defs>
    <style>
      .cls-1 {
        fill: #fff;
      }
    </style>
  </defs>
  <title>Logo_footer</title>
  <g id="レイヤー_2" data-name="レイヤー 2">
    <g id="レイヤー_1-2" data-name="レイヤー 1">
      <path class="cls-1" d="M91.609,21.222a16.323,16.323,0,0,0-11.844,5.219V22.282H70.939V81.271h8.826V56.21a16.749,16.749,0,0,0,24.868-.314,20.658,20.658,0,0,0,5.136-14.316q0-8.786-5.177-14.553A16.519,16.519,0,0,0,91.609,21.222Zm6.078,29.025A9.564,9.564,0,0,1,90.119,53.7a9.91,9.91,0,0,1-7.845-3.415,13.049,13.049,0,0,1-3.02-8.864,12.777,12.777,0,0,1,3.02-8.861,10.082,10.082,0,0,1,7.884-3.373,9.639,9.639,0,0,1,7.611,3.491,13.19,13.19,0,0,1,2.98,8.94A12.524,12.524,0,0,1,97.687,50.247ZM128.421,2.4A5.423,5.423,0,0,1,130.1,6.436a5.555,5.555,0,0,1-1.684,4.081,5.439,5.439,0,0,1-4.042,1.686,5.557,5.557,0,0,1-4.078-1.686,5.61,5.61,0,0,1-1.69-4.119,5.472,5.472,0,0,1,1.69-4,5.728,5.728,0,0,1,8.119,0Zm-8.474,19.884h8.825v38.2h-8.825Zm31.357,10.4a12.249,12.249,0,0,0-3.293,8.743,12.526,12.526,0,0,0,3.176,8.827,10.719,10.719,0,0,0,8.2,3.452,11.238,11.238,0,0,0,5.609-1.372,22.274,22.274,0,0,0,5.529-5.178V58.8a23.17,23.17,0,0,1-10.747,2.783,20.553,20.553,0,0,1-14.824-5.726,19.109,19.109,0,0,1-5.961-14.314,19.37,19.37,0,0,1,6.041-14.434,20.431,20.431,0,0,1,14.827-5.884,22.14,22.14,0,0,1,10.665,2.709V35.657a21.412,21.412,0,0,0-5.412-5.06,10.541,10.541,0,0,0-5.529-1.411A10.9,10.9,0,0,0,151.3,32.677ZM52.347,8.982A30.711,30.711,0,0,1,58.1,44.331l-6.817-6.82A21.694,21.694,0,1,0,37.541,51.287L44.356,58.1A30.665,30.665,0,0,1,8.978,8.982a30.666,30.666,0,0,1,43.369,0ZM31.1,37.414,53.93,60.238l6.313-6.308L37.409,31.1Z"/>
    </g>
  </g>
</svg>
